<svg id="Capa_1" data-name="Capa 1" xmlns="http://www.w3.org/2000/svg" viewBox="0 0 1000 1000"><defs><style>.cls-1{fill:#343433;}.cls-2{fill:#fdc85f;}</style></defs><path class="cls-1" d="M499.83,0C776.29,0,1000,223.71,1000,500.14S776.06,1000.1,499.55,1000-.24,775.75,0,498.61C.24,223.54,224.31,0,499.83,0Zm.49,40C248.88,39.48,42.61,242.45,40,495,37.3,751.31,243.62,957.66,495.32,960.07c255.62,2.45,462.78-203.5,464.74-456.32C962,247.56,754.47,39.79,500.32,40Z" transform="translate(0 0)"/><path class="cls-2" d="M500.32,40C754.47,39.79,962,247.56,960.06,503.75c-2,252.82-209.12,458.77-464.74,456.32C243.62,957.66,37.3,751.31,40,495,42.61,242.45,248.88,39.48,500.32,40ZM637.14,316.9c0,22.42,18,40,40.79,39.87,20.83-.12,39-18.29,39.11-39.2.16-22.26-17.61-40.69-39.38-40.86A40,40,0,0,0,637.14,316.9ZM362.86,317a40,40,0,0,0-40.45-40.26c-21.46.08-39.13,18.09-39.45,40.19-.3,21,18,39.69,39.06,39.88C344.74,357,362.79,339.39,362.86,317Z" transform="translate(0 0)"/><path class="cls-1" d="M508.72,723.47c-111.4-1.14-202.3-78.93-219.25-185.57-1.63-10.27-2.84-20.59-2.11-31.07.19-2.8,1.05-3.58,3.62-3.56,10.62.06,21.25.1,31.87,0,3.11,0,3.8,1.32,3.83,4.14.32,25.55,6.71,49.87,16.75,73.07,3.86,8.93,9.6,17.25,15.26,25.43,14.64,21.14,33.14,38,54.88,51.54,81.87,50.94,194.52,24.39,245.28-57.68C676,572,685.61,542.11,686.48,509.52c.13-4.8,1.29-6.56,6.34-6.34,9.36.4,18.75.38,28.11,0,4.91-.2,5.83,1.52,5.67,6.07-2.14,61.32-25.45,113.25-70.09,155.1C614.4,703.81,563.77,722.78,508.72,723.47Z" transform="translate(0 0)"/><path class="cls-1" d="M637.14,316.9a40,40,0,0,1,40.52-40.19c21.77.17,39.54,18.6,39.38,40.86-.14,20.91-18.28,39.08-39.11,39.2C655.14,356.89,637.17,339.32,637.14,316.9Z" transform="translate(0 0)"/><path class="cls-1" d="M362.86,317c-.07,22.43-18.12,40-40.84,39.81-21.1-.19-39.36-18.84-39.06-39.88.32-22.1,18-40.11,39.45-40.19A40,40,0,0,1,362.86,317Z" transform="translate(0 0)"/></svg>