<svg id="Capa_1" data-name="Capa 1" xmlns="http://www.w3.org/2000/svg" viewBox="0 0 1000 888.89"><path d="M0,277.31c3.33-19.48,5.31-39.3,10.22-58.37C33.59,128.12,85.16,59.51,172.68,22.09,278.82-23.3,393.13,2.54,471.94,87.87,481.35,98.06,490,109,499.48,120.09c7.28-8.79,14-17.44,21.27-25.6C563.14,47,614,13,678,4.37c114.55-15.48,207.61,24.07,269.7,121.34,68,106.51,67.68,219,10.57,331-31.55,61.88-77,113.63-127.7,160.06C758.21,683,683.7,747,610,811.78c-22.45,19.75-45.2,39.17-67.88,58.66-28.34,24.36-57,24.71-84.95.36-92.4-80.48-185.33-160.37-276.63-242.08-51.2-45.83-97-97-131.92-156.88-25.7-44-42.67-91-46.91-142.15A52.63,52.63,0,0,0,0,322.17ZM499.3,830.56c25.95-22.33,50.82-43.73,75.69-65.15,76.58-66,155-129.82,226.78-201.24,40.2-40,78.17-82.08,104.5-132.81,48.22-92.89,48.37-186-7.43-275.32C832.07,49.16,683.27,25,589.2,108.15c-23.11,20.42-41.85,44.27-58.32,70.24-15.59,24.58-46.91,24.44-63,.3-2-3-3.75-6.09-5.72-9.07C434.1,126.94,399.52,91.46,351,72.33c-99-39-213.89,5.28-263,103.51-45.68,91.44-39.47,182.1,12.26,269.69,32.23,54.57,75.06,100.6,121.73,142.67C292.79,652,365.13,713.92,436.84,776.59,457.35,794.51,478.06,812.22,499.3,830.56Z"/></svg>