<svg id="Capa_1" data-name="Capa 1" xmlns="http://www.w3.org/2000/svg" viewBox="0 0 1000 888.92"><path d="M1000,277.33v44.86c-.57,2.18-1.48,4.33-1.66,6.54-4.18,52.54-21.8,100.6-48.43,145.65C918,528.32,877.66,575.69,831.4,617.23c-97,87.06-195.54,172.34-293.83,257.91-21.88,19.05-52.74,18-75.15-1Q423.74,841.38,385.6,808c-72.48-63.74-145.74-126.64-216.86-191.88-50.66-46.48-96.09-98.26-127.47-160.23-57-112.52-56.8-225.29,12.07-331.75C115.3,28.3,207.68-10.75,321,4.23c64.06,8.47,115.05,42.16,157.59,89.55,7.51,8.38,14.43,17.29,22.15,26.58,2.49-3.08,4.53-5.49,6.45-8,75.42-98.1,186.85-135.63,299.15-98C905.55,47.58,963.67,119.6,989.75,219,994.74,238,996.66,257.86,1000,277.33Z"/></svg>