<svg id="Capa_1" data-name="Capa 1" xmlns="http://www.w3.org/2000/svg" viewBox="0 0 1000 184.66"><path d="M394.39,66c.62-1.38,1.05-2.28,1.45-3.2,7.84-18.34,15.73-36.67,23.48-55.06,2-4.64,4.95-6.86,10.18-6.77,7.56.14,15.13-.33,22.69-.51,4.27-.09,6.2,1.72,6.32,6,.1,3.65.05,7.3.06,10.94q.15,70.2.28,140.38a27.14,27.14,0,0,1-.12,3.38c-.5,4-2.15,5.47-6.13,5.51-9.05.11-18.1.18-27.14.27-5,0-6.75-1.51-6.85-6.59-.14-6.77-.13-13.55-.15-20.32q-.06-20.18-.1-40.37a5,5,0,0,0-.45-2.43c-.39.8-.82,1.58-1.18,2.39-3.2,7.22-6.46,14.41-9.54,21.68-1.85,4.35-4.5,7.05-9.67,6.5a35,35,0,0,0-7.3.22c-3.57.37-5.82-1.3-7.26-4.32-2.38-5-4.68-10.07-7-15.1q-2.28-4.89-4.6-9.77l-.64.11c0,.9,0,1.8,0,2.69q.09,28.14.18,56.26c0,1.56.05,3.13-.09,4.69-.3,3.4-2.17,5.19-5.55,5.28q-14.49.38-29,.67c-2.93.06-4.51-1.16-5.22-4a14.46,14.46,0,0,1-.37-3.35q-.39-72.92-.76-145.84a29.72,29.72,0,0,1,.15-3.9c.39-3,2.14-4.77,5.08-5q13.14-1,26.29-2c3.69-.26,5.8,1.9,7.21,4.95Q373.38,19.72,378,30q7.51,16.59,15,33.21C393.38,64,393.77,64.74,394.39,66Z"/><path d="M690.7,77.15c0-.55.1-1.1.1-1.65q.23-29.29.43-58.6a20.89,20.89,0,0,1,.22-3.63c.53-2.83,2.31-4.19,5.18-3.9q14.93,1.5,29.84,3.1c3.06.33,5,3.15,5,7.16-.05,10.85-.15,21.7-.23,32.55q-.4,55.33-.83,110.68a13.68,13.68,0,0,1-.43,3.84c-.77,2.51-2.43,3.74-5.26,3.62-8.17-.34-16.35-.61-24.52-.66-4.23,0-6.74-1.93-8.51-5.6q-13.41-27.93-27-55.78c-.39-.81-.83-1.59-1.25-2.39l-.66.14c0,2.65,0,5.29,0,7.93q-.1,23.56-.22,47.14a12.31,12.31,0,0,1-.53,3.83,4.62,4.62,0,0,1-4.87,3.51c-9.82-.27-19.65-.44-29.48-.69a4.84,4.84,0,0,1-5.14-4.78,61.77,61.77,0,0,1-.12-6.24l.6-143.5c0-1,0-1.91,0-2.86.1-5,1.89-6.65,6.91-6.3,7.72.54,15.44,1.21,23.17,1.54,4.63.19,7.31,2.44,9.05,6.53q13.41,31.5,27,62.92c.32.74.69,1.47,1,2.2Z"/><path d="M67.1,103.18V99.67Q67,76,66.88,52.27c0-5.11,1.4-6.87,6.35-7.9,8.94-1.86,17.89-3.67,26.84-5.51,4.73-1,6.5.39,6.54,5.22q.28,34.77.53,69.54l.39,55.48a36,36,0,0,1-.08,4.16,5.12,5.12,0,0,1-5.1,4.93c-8.51.54-17,1-25.53,1.6-3.66.27-6-1.15-8-4.18-8.92-14-18-27.89-27-41.83a5.39,5.39,0,0,0-2.06-2v2.64q.13,20.58.25,41.15c0,5.14-1.65,6.78-6.82,7.11q-13.66.9-27.33,1.92c-4.06.31-5.83-1.16-5.85-5.31,0-12.94,0-25.87,0-38.81L0,67.83C0,62.62,1.3,61,6.45,59.69q11.9-2.92,23.83-5.77c4.36-1,6.14-.31,8.49,3.55q13,21.36,25.93,42.76c.61,1,1.21,2,1.82,3Z"/><path d="M949.29,181.37c-13.71-.28-27-2.19-39.28-8.93-11.57-6.38-19.27-15.75-21.91-28.88a38.66,38.66,0,0,1-.7-5.68c-.18-3.34,1.34-4.85,4.72-4.52,7.44.7,14.87,1.54,22.31,2.32,1,.1,1.9.24,2.85.29,5.66.28,10.58,1.61,15.06,5.82,5.63,5.29,13.08,5.65,20.41,4.06,4-.87,4.77-4.2,1.74-6.92a15.31,15.31,0,0,0-5.12-3c-5.67-1.93-11.4-3.68-17.15-5.37-9.93-2.92-19.38-6.77-27.23-13.75-13.42-11.93-18.31-33.14-11.36-49.68,5.18-12.33,15-19.26,27.92-20.07,29.21-1.86,52.55,9.41,69,33.84,2.49,3.71,3.78,8.35,5,12.74,1.08,3.86-.69,5.36-4.67,4.63-10.77-2-21.56-3.87-32.28-6.14A14.59,14.59,0,0,1,952,88.4a18.81,18.81,0,0,0-11.21-5.53c-3.09-.34-5.32.52-6.07,2.42-.84,2.13-.18,4.69,2.51,6.22A64.83,64.83,0,0,0,949,96.86c9.76,3.18,19.5,6.36,28.49,11.42,9.17,5.16,17,11.71,20.26,22.14,6.26,19.94-.38,37.77-21.9,46.31A68.59,68.59,0,0,1,949.29,181.37Z"/><path d="M215.52,150.75c-.23-.38-.33-.46-.31-.53,1-5.52-3-8.24-6.37-11.28-9-8-18.18-15.67-26.8-24-8.32-8-15.16-17.3-18.35-28.66-4-14.2-.95-27.48,6.8-39.57,10.36-16.14,25.52-25.4,44.46-28,24.67-3.36,45.32,4.49,61,23.89,8.5,10.51,12.49,22.91,11.14,36.44-1.18,11.73-7,21.65-14.88,30.12-7.14,7.68-15,14.73-22.61,21.94-4,3.81-8.31,7.39-12.52,11-2,1.69-3.18,3.56-2.84,6.31.08.7-.78,2.18-1.24,2.19C227.13,150.8,221.23,150.75,215.52,150.75Zm28.77-73.9c-.13-9.64-1.07-19-4.11-28.11-1.9-5.63-4.22-11.07-8.9-15.07-4.12-3.52-8.92-3.79-12.66.1a40.61,40.61,0,0,0-7.16,10.39c-3.59,7.43-4.91,15.54-5.51,23.72-1,14.09-.19,28,5.57,41.14a35.87,35.87,0,0,0,7.2,10.35c3.69,3.78,8.64,3.75,12.38,0a35.71,35.71,0,0,0,6.87-9.66C242.91,99.32,244.06,88.08,244.29,76.85Z"/><path d="M518.58,83.48q0-37.64,0-75.26A16.65,16.65,0,0,1,519,4.1c.77-3,2.32-4.15,5.44-4.1Q540.21.29,556,.62c5,.11,7,2.09,7,7.24.05,6.33,0,12.67,0,19q-.15,64.71-.32,129.43a49.64,49.64,0,0,1-.19,5.46c-.39,3.44-2.25,5-5.73,5q-15.91-.07-31.84-.2c-4.49,0-6.34-1.78-6.38-6.28-.06-8.34,0-16.67,0-25V83.48Z"/><path d="M791.09,96.84V29.15c.06-7.37,1.18-8.36,8.45-7.25,9.79,1.49,19.57,3,29.35,4.58,4.33.69,6.16,2.77,6.17,7.2q0,12.89-.12,25.77-.47,54.29-1,108.57a14.89,14.89,0,0,1-.14,2.59,4.42,4.42,0,0,1-4.73,3.91q-17.34-.72-34.66-1.59c-2.76-.15-4.4-2.4-4.42-6.05,0-6.08.1-12.15.11-18.23q0-25.91,0-51.81Z"/><path d="M234.7,171.69H215c0-3.55-.07-7,.08-10.42,0-.48,1.06-1.3,1.65-1.32q8.08-.15,16.18,0c.59,0,1.65.82,1.67,1.29C234.77,164.68,234.7,168.14,234.7,171.69Z"/></svg>