<svg id="Capa_1" data-name="Capa 1" xmlns="http://www.w3.org/2000/svg" viewBox="0 0 999.18 1000"><path d="M784.82,838.81l1.46-.83c1.64,1.45,3.36,2.81,4.9,4.35q46.8,46.78,93.56,93.6Q910.77,962,936.8,988c12.71,12.65,28.25,15.34,43.34,7.72,14.89-7.51,22.23-27,17.73-40.7-2.58-7.88-7-14-12.67-19.6Q861.87,812.15,738.57,688.81,629,579.13,519.4,469.41,406.74,356.63,294.06,243.85,190,139.7,85.85,35.58C77,26.76,68.47,17.63,59.2,9.29,38.08-9.69,6.89,2.45,1.08,27.47c-3.07,13.21.43,24.67,10,34.26Q40.18,90.88,69.3,120L229,279.82c1.4,1.41,2.75,2.88,4.12,4.32l-.45,1.37c-3.68,0-7.38-.24-11,.05-8.28.66-16.72.77-24.76,2.58-17.34,3.91-30.68,14.24-41,28.51-9.48,13.09-13.32,27.87-13.3,44q.16,139.33.06,278.69c0,2.29,0,4.58.12,6.87a69.19,69.19,0,0,0,12.77,37.19c14.85,20.8,35.34,31,60.68,31q78.69.26,157.37,0a16.79,16.79,0,0,1,11.33,3.94c15,12.14,30.19,24,45.26,36.1Q490.47,802.68,550.7,851q58.56,46.88,117.16,93.72c19.29,15.43,38.65,30.77,57.88,46.27,18.67,15,39.66,9,50-2.71,6.66-7.54,9.19-16.38,9.15-26.4-.17-38.74-.07-77.48-.07-116.22ZM411.42,260.49Q597,446.17,781.77,631c.51.51,1.35.68,3.05,1.49V623.9q0-290.89,0-581.79c0-2.91,0-5.83-.14-8.74C783.87,15.57,769,.49,750,0c-9.41-.24-17.27,3.62-24.45,9.38q-30.85,24.72-61.82,49.32-64,51-128.1,102-58.43,46.56-116.8,93.2C416.4,255.82,414.22,258,411.42,260.49Z"/></svg>