<svg id="Illustration" xmlns="http://www.w3.org/2000/svg" xmlns:xlink="http://www.w3.org/1999/xlink" viewBox="0 0 1000 988.36"><defs><linearGradient id="linear-gradient" x1="1117.29" y1="1280.06" x2="236.32" y2="185.94" gradientUnits="userSpaceOnUse"><stop offset="0" stop-color="#dae3fe"/><stop offset="1" stop-color="#e9effd"/></linearGradient><linearGradient id="linear-gradient-2" x1="574" y1="697.27" x2="746.26" y2="328.82" gradientUnits="userSpaceOnUse"><stop offset="0" stop-color="#09005d"/><stop offset="1" stop-color="#1a0f91"/></linearGradient><linearGradient id="linear-gradient-3" x1="499.3" y1="32.02" x2="499.3" y2="422" xlink:href="#linear-gradient-2"/><linearGradient id="linear-gradient-4" x1="607.94" y1="1336.93" x2="548.13" y2="1045.04" xlink:href="#linear-gradient-2"/><linearGradient id="linear-gradient-5" x1="-1295.71" y1="-394.25" x2="-1547.28" y2="232.68" gradientTransform="translate(2165.35 -98.53) rotate(-16.79)" gradientUnits="userSpaceOnUse"><stop offset="0" stop-color="#4042e2"/><stop offset="1" stop-color="#4f52ff"/></linearGradient><linearGradient id="linear-gradient-6" x1="-1437.98" y1="-451.34" x2="-1689.54" y2="175.58" xlink:href="#linear-gradient-5"/><linearGradient id="linear-gradient-7" x1="-1478.12" y1="-467.45" x2="-1729.69" y2="159.47" xlink:href="#linear-gradient-5"/><linearGradient id="linear-gradient-8" x1="-1459.73" y1="-460.07" x2="-1711.29" y2="166.85" xlink:href="#linear-gradient-5"/><linearGradient id="linear-gradient-9" x1="-1336.17" y1="-410.48" x2="-1587.73" y2="216.43" xlink:href="#linear-gradient-5"/><linearGradient id="linear-gradient-10" x1="-1473.33" y1="-465.53" x2="-1724.89" y2="161.39" xlink:href="#linear-gradient-5"/><linearGradient id="linear-gradient-11" x1="-1473.62" y1="-465.65" x2="-1725.19" y2="161.28" xlink:href="#linear-gradient-5"/><linearGradient id="linear-gradient-12" x1="-1409.15" y1="-439.77" x2="-1660.71" y2="187.15" xlink:href="#linear-gradient-5"/><linearGradient id="linear-gradient-13" x1="-1374.62" y1="-425.92" x2="-1626.19" y2="201" xlink:href="#linear-gradient-5"/><linearGradient id="linear-gradient-14" x1="-1460.37" y1="-460.33" x2="-1711.94" y2="166.6" xlink:href="#linear-gradient-5"/><linearGradient id="linear-gradient-15" x1="-1259.05" y1="-379.54" x2="-1510.62" y2="247.39" xlink:href="#linear-gradient-5"/><linearGradient id="linear-gradient-16" x1="-1305.38" y1="-398.15" x2="-1556.96" y2="228.79" xlink:href="#linear-gradient-5"/><linearGradient id="linear-gradient-17" x1="-1127.97" y1="-319.1" x2="-1379.54" y2="307.82" xlink:href="#linear-gradient-5"/><linearGradient id="linear-gradient-18" x1="-1101.95" y1="-308.66" x2="-1353.52" y2="318.26" xlink:href="#linear-gradient-5"/><linearGradient id="linear-gradient-19" x1="-1100.65" y1="-308.14" x2="-1352.22" y2="318.78" xlink:href="#linear-gradient-5"/><linearGradient id="linear-gradient-20" x1="-1124.15" y1="-317.57" x2="-1375.71" y2="309.35" xlink:href="#linear-gradient-5"/><linearGradient id="linear-gradient-21" x1="-1177.78" y1="-339.08" x2="-1429.34" y2="287.83" xlink:href="#linear-gradient-5"/><linearGradient id="linear-gradient-22" x1="-1147.71" y1="-327.02" x2="-1399.27" y2="299.9" xlink:href="#linear-gradient-5"/><linearGradient id="linear-gradient-23" x1="-1108.2" y1="-311.17" x2="-1359.77" y2="315.76" xlink:href="#linear-gradient-5"/><linearGradient id="linear-gradient-24" x1="-1251.44" y1="-368.64" x2="-1503" y2="258.27" xlink:href="#linear-gradient-5"/><linearGradient id="linear-gradient-25" x1="-1212.94" y1="-353.19" x2="-1464.5" y2="273.72" xlink:href="#linear-gradient-5"/><linearGradient id="linear-gradient-26" x1="-1111.98" y1="-312.69" x2="-1363.55" y2="314.24" xlink:href="#linear-gradient-5"/><linearGradient id="linear-gradient-27" x1="-1341.28" y1="-412.55" x2="-1592.86" y2="214.38" xlink:href="#linear-gradient-5"/><linearGradient id="linear-gradient-28" x1="-21.7" y1="821.36" x2="17.78" y2="485.2" gradientTransform="translate(685.22 501.08) rotate(11.18)" xlink:href="#linear-gradient-2"/><linearGradient id="linear-gradient-29" x1="774.92" y1="252.22" x2="837.6" y2="252.22" gradientTransform="matrix(1, 0, 0, 1, 0, 0)" xlink:href="#linear-gradient-5"/><linearGradient id="linear-gradient-30" x1="800.19" y1="239.32" x2="888.98" y2="239.32" gradientTransform="matrix(1, 0, 0, 1, 0, 0)" xlink:href="#linear-gradient-5"/><linearGradient id="linear-gradient-31" x1="-142.16" y1="807.22" x2="-102.68" y2="471.05" gradientTransform="translate(685.22 501.08) rotate(11.18)" xlink:href="#linear-gradient-2"/><linearGradient id="linear-gradient-32" x1="740" y1="204.76" x2="809.12" y2="204.76" gradientTransform="matrix(1, 0, 0, 1, 0, 0)" xlink:href="#linear-gradient-5"/><linearGradient id="linear-gradient-33" x1="689.93" y1="198.02" x2="824.39" y2="198.02" gradientTransform="matrix(1, 0, 0, 1, 0, 0)" xlink:href="#linear-gradient-5"/><linearGradient id="linear-gradient-34" x1="218.49" y1="-101.49" x2="128.62" y2="248.19" gradientTransform="translate(144.45 -69.87) rotate(45)" gradientUnits="userSpaceOnUse"><stop offset="0" stop-color="#fe7062"/><stop offset="1" stop-color="#ff928e"/></linearGradient><linearGradient id="linear-gradient-35" x1="474.19" y1="-268.03" x2="333.97" y2="-98.51" gradientUnits="userSpaceOnUse"><stop offset="0" stop-color="#e1473d"/><stop offset="1" stop-color="#e9605a"/></linearGradient><linearGradient id="linear-gradient-36" x1="506" y1="-241.72" x2="365.78" y2="-72.2" xlink:href="#linear-gradient-35"/><linearGradient id="linear-gradient-37" x1="453.23" y1="102.5" x2="540.2" y2="594.66" xlink:href="#linear-gradient-2"/><linearGradient id="linear-gradient-38" x1="682.42" y1="167.34" x2="232.37" y2="1209.67" gradientTransform="matrix(1, 0, 0, 1, 0, 0)" xlink:href="#linear-gradient-34"/><linearGradient id="linear-gradient-39" x1="402.61" y1="482.87" x2="632.45" y2="-75.99" xlink:href="#linear-gradient-2"/><linearGradient id="linear-gradient-40" x1="461.85" y1="507.23" x2="691.69" y2="-51.63" xlink:href="#linear-gradient-2"/><linearGradient id="linear-gradient-41" x1="534.31" y1="537.03" x2="764.15" y2="-21.83" xlink:href="#linear-gradient-2"/><linearGradient id="linear-gradient-42" x1="413.03" y1="487.15" x2="642.87" y2="-71.71" xlink:href="#linear-gradient-2"/><linearGradient id="linear-gradient-43" x1="453.95" y1="503.98" x2="683.79" y2="-54.88" xlink:href="#linear-gradient-2"/><linearGradient id="linear-gradient-44" x1="495.44" y1="521.05" x2="725.28" y2="-37.82" xlink:href="#linear-gradient-2"/><linearGradient id="linear-gradient-45" x1="537.52" y1="538.35" x2="767.35" y2="-20.5" xlink:href="#linear-gradient-2"/><linearGradient id="linear-gradient-46" x1="584.09" y1="557.5" x2="813.93" y2="-1.36" xlink:href="#linear-gradient-2"/><linearGradient id="linear-gradient-47" x1="2693.35" y1="925.75" x2="2447.46" y2="1193.21" gradientTransform="translate(-2400.04)" xlink:href="#linear-gradient-2"/><linearGradient id="linear-gradient-48" x1="2613.53" y1="945.62" x2="2635.38" y2="945.62" gradientTransform="translate(-2400.04)" gradientUnits="userSpaceOnUse"><stop offset="0" stop-color="#febbba"/><stop offset="1" stop-color="#ff928e"/></linearGradient><linearGradient id="linear-gradient-49" x1="1320.12" y1="2276.13" x2="1555.56" y2="2000.19" gradientTransform="translate(-2400.04)" gradientUnits="userSpaceOnUse"><stop offset="0" stop-color="#020039"/><stop offset="1" stop-color="#090056"/></linearGradient><linearGradient id="linear-gradient-50" x1="2638.18" y1="875.04" x2="2392.29" y2="1142.5" gradientTransform="translate(-2400.04)" xlink:href="#linear-gradient-2"/><linearGradient id="linear-gradient-51" x1="2534.82" y1="944.5" x2="2553.68" y2="944.5" xlink:href="#linear-gradient-48"/><linearGradient id="linear-gradient-52" x1="1287.12" y1="2247.97" x2="1522.55" y2="1972.03" xlink:href="#linear-gradient-49"/><linearGradient id="linear-gradient-53" x1="291.76" y1="364.59" x2="206.83" y2="603.85" gradientUnits="userSpaceOnUse"><stop offset="0" stop-color="#4f52ff"/><stop offset="1" stop-color="#4042e2"/></linearGradient><linearGradient id="linear-gradient-54" x1="-11165.13" y1="2859.64" x2="-11410.08" y2="3173.03" gradientTransform="translate(995.16 -11207.22) rotate(-71.74)" xlink:href="#linear-gradient-48"/><linearGradient id="linear-gradient-55" x1="-11131.79" y1="2885.7" x2="-11376.74" y2="3199.1" gradientTransform="translate(995.16 -11207.22) rotate(-71.74)" xlink:href="#linear-gradient-48"/><linearGradient id="linear-gradient-56" x1="219.09" y1="338.8" x2="134.15" y2="578.05" xlink:href="#linear-gradient-53"/><linearGradient id="linear-gradient-57" x1="120.07" y1="303.64" x2="35.13" y2="542.9" xlink:href="#linear-gradient-53"/><linearGradient id="linear-gradient-58" x1="-6019.85" y1="903.67" x2="-6061.98" y2="1085.73" gradientTransform="translate(6251.49 1024.52) rotate(15.02)" xlink:href="#linear-gradient-48"/><linearGradient id="linear-gradient-59" x1="-4038.04" y1="1298" x2="-4191.98" y2="1372.82" gradientTransform="matrix(-0.95, 0.33, 0.33, 0.95, -4157.08, 407.56)" xlink:href="#linear-gradient-48"/><linearGradient id="linear-gradient-60" x1="-6166.76" y1="-4763.73" x2="-6081.93" y2="-4763.73" gradientTransform="translate(7920.21 1161.98) rotate(-31.72)" xlink:href="#linear-gradient-2"/><linearGradient id="linear-gradient-61" x1="-4029.72" y1="1315.1" x2="-4183.67" y2="1389.91" gradientTransform="matrix(-0.95, 0.33, 0.33, 0.95, -4157.08, 407.56)" xlink:href="#linear-gradient-48"/><linearGradient id="linear-gradient-62" x1="-4197.99" y1="1305.52" x2="-4061.84" y2="1399.92" gradientTransform="matrix(-1, -0.01, -0.01, 1, -4002.68, -1053.44)" xlink:href="#linear-gradient-48"/><linearGradient id="linear-gradient-63" x1="-4195.22" y1="1302.78" x2="-4053.59" y2="1400.99" gradientTransform="matrix(-1, -0.01, -0.01, 1, -4002.68, -1053.44)" xlink:href="#linear-gradient-48"/><linearGradient id="linear-gradient-64" x1="86.72" y1="291.8" x2="1.78" y2="531.06" xlink:href="#linear-gradient-53"/></defs><path d="M877.65,846.69c-20.38,21.2-39.67,34.87-54.91,45.68-179.13,127-391.09,90-436.14,80.92-66.52-13.35-195.1-39.15-288.07-147.15C-42.11,662.75-20.21,405.33,88.88,235.4c20-31.08,125.37-203.6,339.61-231.27,129.66-16.74,280.8,17,390.25,107.62C1048.48,301.9,1032.13,686,877.65,846.69Z" fill="url(#linear-gradient)"/><path d="M409.25,907.72C403,794.8,361.11,691.79,212.44,618.51,212.44,618.51,189.36,895.51,409.25,907.72Z" fill="#bdd0fb"/><path d="M368.42,858.7a1.21,1.21,0,0,1-.83-.34C283.5,776.29,231,655.88,230.44,654.68a1.2,1.2,0,0,1,2.2-.95c.52,1.2,52.88,121.18,136.62,202.92a1.2,1.2,0,0,1-.84,2.05Z" fill="#fff" opacity="0.51"/><path d="M668.43,900.67c101.54,9.37,199-14.33,284-137.22C952.43,763.45,708.45,706.17,668.43,900.67Z" fill="#bdd0fb"/><path d="M726,867.5a1.22,1.22,0,0,1-.78-.29,1.19,1.19,0,0,1-.13-1.68c30.35-35.78,80-58.52,116.4-71.29a480.42,480.42,0,0,1,72.27-19.33,1.18,1.18,0,0,1,1.37,1,1.2,1.2,0,0,1-1,1.38c-1.3.21-129.77,22.06-187.24,89.8A1.2,1.2,0,0,1,726,867.5Z" fill="#fff" opacity="0.51"/><polygon points="421.02 686.67 399.67 878.15 647.37 878.15 615.1 686.67 421.02 686.67" fill="url(#linear-gradient-2)"/><path d="M4.94,214.93V653.45A66.52,66.52,0,0,0,69.75,720c160.17,4.13,720.37,14.15,872.84,11.9a49,49,0,0,0,48.19-47.55c2.94-101.88,7.71-346.85-10-460.58a50.36,50.36,0,0,0-48.16-42.64c-134.2-4.29-728-17.93-880.44-14.5A48.36,48.36,0,0,0,4.94,214.93Z" fill="url(#linear-gradient-3)"/><path d="M32.46,212.79V629.42a38.55,38.55,0,0,0,38,38.54l850.22,10.5a37.5,37.5,0,0,0,38.07-37.37l1.43-412.9a27.45,27.45,0,0,0-26.77-27.53L62.91,183.08A29.72,29.72,0,0,0,32.46,212.79Z" fill="#91b3fa"/><path d="M965.12,695.55h0L32.44,679.66a1.2,1.2,0,0,1-1.18-1.21,1.24,1.24,0,0,1,1.22-1.18l932.66,15.89a1.2,1.2,0,0,1,0,2.39Z" fill="#fff" opacity="0.65"/><path d="M508,715a10.9,10.9,0,1,1,10.9-10.9A10.91,10.91,0,0,1,508,715Zm0-19.41a8.51,8.51,0,1,0,8.51,8.51A8.52,8.52,0,0,0,508,695.55Z" fill="#fff" opacity="0.65"/><path d="M653.49,906C762.4,851.91,846.43,766.86,855.8,588.89,855.8,588.89,572.32,683.54,653.49,906Z" fill="#7d97f4"/><path d="M671.1,865.81a1.07,1.07,0,0,1-.39-.07,1.19,1.19,0,0,1-.73-1.52C696,790.1,734.61,733,762.45,698.07c30.17-37.82,54.53-58.39,54.78-58.59a1.19,1.19,0,0,1,1.68.14,1.2,1.2,0,0,1-.15,1.69c-1,.81-97,82.5-146.53,223.7A1.19,1.19,0,0,1,671.1,865.81Z" fill="#fff" opacity="0.51"/><path d="M700.72,917.32H338.2c-9.84,0-17.24-7-15.34-14.54l4.66-18.4c1.39-5.53,7.48-9.59,14.71-9.82l349.48-10.9c7.55-.24,14.24,3.77,15.88,9.52l8.39,29.3C718.16,910.1,710.73,917.32,700.72,917.32Z" fill="url(#linear-gradient-4)"/><path d="M533.35,879.56a1.2,1.2,0,0,1,0-2.39l15-.22h0a1.2,1.2,0,0,1,0,2.39l-15,.22Z" fill="#fff"/><path d="M336.28,907.19h-.18a1.2,1.2,0,0,1-1-1.37l2.14-13.38a14.94,14.94,0,0,1,14.56-12.61l158.84-2.32h0a1.2,1.2,0,0,1,0,2.39l-158.84,2.33a12.55,12.55,0,0,0-12.23,10.59l-2.14,13.37A1.19,1.19,0,0,1,336.28,907.19Z" fill="#fff"/><path d="M790.6,35.24c5.43.26,10.9.76,16.26,1.48a5,5,0,1,0,1.34-10c-5.65-.76-11.41-1.28-17.12-1.55a5,5,0,1,0-.48,10.06Z" fill="url(#linear-gradient-5)"/><path d="M649.43,81a5.06,5.06,0,0,0-7.13-.15c-4.12,4-8.12,8.13-11.89,12.41a5,5,0,0,0,5.25,8.15A5,5,0,0,0,638,99.87c3.58-4.07,7.38-8,11.3-11.79A5.06,5.06,0,0,0,649.43,81Z" fill="url(#linear-gradient-6)"/><path d="M587.63,194.84a5,5,0,0,0-5.67,4.31c-.77,5.66-1.3,11.42-1.58,17.11a5,5,0,1,0,10.06.5c.27-5.41.77-10.88,1.5-16.25A5,5,0,0,0,587.63,194.84Z" fill="url(#linear-gradient-7)"/><path d="M620.46,114a5,5,0,0,0-7,1.43c-3.15,4.77-6.13,9.73-8.85,14.73a5,5,0,0,0,2,6.83,5,5,0,0,0,3.86.4,5,5,0,0,0,3-2.41c2.59-4.75,5.42-9.46,8.41-14A5,5,0,0,0,620.46,114Z" fill="url(#linear-gradient-8)"/><path d="M747.92,38c5.34-1,10.79-1.69,16.18-2.19a5.52,5.52,0,0,0,1-.19,5,5,0,0,0-1.93-9.85c-5.68.53-11.4,1.31-17,2.31A5,5,0,0,0,747.92,38Z" fill="url(#linear-gradient-9)"/><path d="M599.5,152.55a5,5,0,0,0-6.49,2.93c-2,5.34-3.81,10.84-5.37,16.33a5,5,0,0,0,9.71,2.74c1.47-5.22,3.18-10.44,5.09-15.51A5,5,0,0,0,599.5,152.55Z" fill="url(#linear-gradient-10)"/><path d="M585.52,238.69a5.05,5.05,0,0,0-4.57,5.48c.51,5.66,1.28,11.39,2.27,17a5,5,0,0,0,5.85,4.08,5.43,5.43,0,0,0,.58-.13,5,5,0,0,0,3.5-5.7c-.95-5.35-1.67-10.8-2.16-16.18A5,5,0,0,0,585.52,238.69Z" fill="url(#linear-gradient-11)"/><path d="M668.13,71.86a4.88,4.88,0,0,0,1.5-.74c4.39-3.17,9-6.18,13.62-9a5,5,0,0,0-5.17-8.65c-4.9,2.93-9.73,6.1-14.35,9.44a5,5,0,0,0,4.4,8.91Z" fill="url(#linear-gradient-12)"/><path d="M706.38,50.36a5.17,5.17,0,0,0,.51-.18c5-2.11,10.13-4,15.3-5.7a5,5,0,0,0-3-9.62l-.11,0c-5.43,1.76-10.85,3.78-16.1,6a5,5,0,0,0,3.41,9.47Z" fill="url(#linear-gradient-13)"/><path d="M599.52,285.11a5.09,5.09,0,0,0-6.26-3.35l-.1,0a5.07,5.07,0,0,0-3.23,6.41c1.76,5.45,3.81,11,6,16.27A5,5,0,0,0,602,307.3a4.31,4.31,0,0,0,.47-.26,5,5,0,0,0,2.7-6.58C603.11,295.47,601.19,290.28,599.52,285.11Z" fill="url(#linear-gradient-14)"/><path d="M846.83,41.15a5,5,0,0,0-3.24-6.35c-2.6-.85-5.25-1.66-7.9-2.4A5,5,0,1,0,833,42.1c2.52.71,5,1.48,7.51,2.28a5.06,5.06,0,0,0,6.36-3.23Z" fill="url(#linear-gradient-15)"/><path d="M762.76,416.6c-5.31-.52-10.66-1.28-15.91-2.24a5,5,0,0,0-1.82,9.91c5.52,1,11.15,1.81,16.74,2.36a4.87,4.87,0,0,0,2-.19,5,5,0,0,0-1-9.84Z" fill="url(#linear-gradient-16)"/><path d="M970.67,151.45a5,5,0,0,0,6,2.63,5.45,5.45,0,0,0,.76-.3,5,5,0,0,0,2.33-6.73c-1.2-2.46-2.46-4.94-3.76-7.36a5,5,0,1,0-8.88,4.77C968.34,146.76,969.54,149.11,970.67,151.45Z" fill="url(#linear-gradient-17)"/><path d="M993.57,211.35a5,5,0,0,0-4.53,5.5c.52,5.32.82,10.71.88,16a5,5,0,0,0,5.1,5,5.32,5.32,0,0,0,1.4-.21,5.05,5.05,0,0,0,3.58-4.89c-.07-5.61-.38-11.29-.92-16.88A5,5,0,0,0,993.57,211.35Z" fill="url(#linear-gradient-18)"/><path d="M994.08,254.57a5,5,0,0,0-5.62,4.37c-.67,5.29-1.57,10.62-2.68,15.84a5,5,0,0,0,3.88,6,5.14,5.14,0,0,0,2.5-.1,5.07,5.07,0,0,0,3.48-3.78c1.17-5.5,2.11-11.11,2.81-16.68A5,5,0,0,0,994.08,254.57Z" fill="url(#linear-gradient-19)"/><path d="M960.06,337.66c-2.86,4.5-5.94,8.93-9.17,13.18a5,5,0,0,0,5.47,7.87,4.94,4.94,0,0,0,2.55-1.77c3.4-4.47,6.65-9.14,9.66-13.88a5,5,0,0,0-8.51-5.4Z" fill="url(#linear-gradient-20)"/><path d="M900.9,396.75c-4.52,2.86-9.2,5.55-13.92,8a5,5,0,1,0,4.64,8.94c5-2.58,9.91-5.41,14.66-8.42a5,5,0,1,0-5.38-8.52Z" fill="url(#linear-gradient-21)"/><path d="M933.74,370.49c-3.78,3.77-7.76,7.43-11.82,10.86a5,5,0,0,0,4.7,8.68,5.21,5.21,0,0,0,1.8-1c4.28-3.61,8.47-7.46,12.44-11.43a5,5,0,1,0-7.12-7.13Z" fill="url(#linear-gradient-22)"/><path d="M985.07,296.84a5,5,0,0,0-6.46,3c-1.8,5-3.85,10-6.08,14.87a5,5,0,0,0,2.48,6.68,5.05,5.05,0,0,0,6.68-2.48c2.35-5.11,4.5-10.37,6.4-15.65A5,5,0,0,0,985.07,296.84Z" fill="url(#linear-gradient-23)"/><path d="M822.09,424.88c-5.3.65-10.69,1.1-16,1.31a5,5,0,1,0,.4,10.07c5.6-.22,11.28-.69,16.85-1.38a5.43,5.43,0,0,0,.84-.18,5,5,0,0,0-2.08-9.82Z" fill="url(#linear-gradient-24)"/><path d="M863.06,415.16c-5,1.77-10.14,3.37-15.35,4.75a5,5,0,1,0,2.59,9.74q3.39-.9,6.72-1.9c3.16-1,6.33-2,9.42-3.1a5,5,0,1,0-3.38-9.49Z" fill="url(#linear-gradient-25)"/><path d="M990,172.53a5,5,0,0,0-6.35-3.23,5,5,0,0,0-3.23,6.35c.43,1.34.86,2.69,1.27,4,1.13,3.75,2.16,7.59,3.07,11.42a5,5,0,0,0,6.06,3.74l.3-.08a5,5,0,0,0,3.44-6c-.94-4-2-8.06-3.22-12C990.92,175.36,990.47,173.94,990,172.53Z" fill="url(#linear-gradient-26)"/><path d="M721.46,407.84c-2.46-.82-5-1.7-7.39-2.62a5,5,0,1,0-3.56,9.43c2.58,1,5.2,1.9,7.79,2.76a5,5,0,0,0,3.16-9.57Z" fill="url(#linear-gradient-27)"/><path d="M946.55,184.44l-28.37-4a124.62,124.62,0,0,0-21.31-32.57l-36.61,7-28,30.34L857,238.73l-62.52-2.09-36.55,27.21,5,48-38.43-7.45-13.08,13L704,345a2.36,2.36,0,0,0,1,2.56l28.51,19.23a2.36,2.36,0,0,0,2.73-.07l22.9-17.25a124.69,124.69,0,0,0,39.64,8.08l14.34,24.81a2.35,2.35,0,0,0,2.49,1.13l33.75-6.56a2.35,2.35,0,0,0,1.88-2l4-28.37a125,125,0,0,0,33.73-22.34l27.69,7.4a2.35,2.35,0,0,0,2.56-.95l19.23-28.51a2.36,2.36,0,0,0-.07-2.73l-17.24-22.9a125,125,0,0,0,8.08-39.65L954,222.56a2.35,2.35,0,0,0,1.13-2.49l-6.56-33.75A2.34,2.34,0,0,0,946.55,184.44Z" fill="url(#linear-gradient-28)"/><path d="M814.88,256a26.51,26.51,0,0,1-33.49-9.61l-6.47,4.83a34.61,34.61,0,0,0,38.65,13.89,34.58,34.58,0,0,0,24-26.93l-8.18-.29A26.46,26.46,0,0,1,814.88,256Z" fill="url(#linear-gradient-29)"/><path d="M885.3,206.66a84.25,84.25,0,0,0-31.85-44.37l-2.76,3a80.26,80.26,0,0,1,30.75,42.55q1.18,4,2,8.09a81,81,0,0,1-64,94.91,82.1,82.1,0,0,1-17.18,1.49,2,2,0,0,0-2,2,1.88,1.88,0,0,0,.08.63,2,2,0,0,0,1.89,1.43c.34,0,.68-.18,1-.18.17,0,.35-.18.52-.18h.19a84.43,84.43,0,0,0,13.56-.91c.91-.14,1.82-.21,2.73-.39a85.19,85.19,0,0,0,8.48-2.05,84.94,84.94,0,0,0,58.72-97.51Q886.55,210.81,885.3,206.66Z" fill="url(#linear-gradient-30)"/><path d="M733.59,290l-4.73-45.75,36.55-27.21,60.91,2a1,1,0,0,0,.93-1.41l-24-52,28-30.34,36.61-7c-.35-.38-.68-.78-1-1.16l7.41-27.69a2.37,2.37,0,0,0-1-2.56L844.73,77.67a2.36,2.36,0,0,0-2.73.07L819.1,95a125,125,0,0,0-39.65-8.07L765.12,62.1A2.35,2.35,0,0,0,762.63,61l-33.75,6.56a2.35,2.35,0,0,0-1.88,2l-4,28.37a124.73,124.73,0,0,0-33.73,22.34l-27.69-7.4a2.37,2.37,0,0,0-2.57,1l-19.22,28.51a2.34,2.34,0,0,0,.07,2.73l17.24,22.9A125,125,0,0,0,649,207.56l-24.8,14.33a2.34,2.34,0,0,0-1.13,2.49l6.56,33.75a2.34,2.34,0,0,0,2,1.88L660,264a124.73,124.73,0,0,0,22.34,33.73l0,.09,13.09-13,36.19,7A1.68,1.68,0,0,0,733.59,290Z" fill="url(#linear-gradient-31)"/><path d="M752.34,226.83a26.24,26.24,0,0,1-1.76-3.11,26.54,26.54,0,0,1,12.71-35.26,26.85,26.85,0,0,1,3.67-1.4,26.45,26.45,0,0,1,33.41,31.26l8.18.29a34.63,34.63,0,1,0-62.68,13Z" fill="url(#linear-gradient-32)"/><path d="M822.44,141.35A85,85,0,0,0,691.5,228a84.87,84.87,0,0,0,20.15,40.54,2,2,0,0,0,3-2.7A81,81,0,0,1,820.19,144.7c.49.33,1,.68,1.45,1l2.75-3C823.75,142.27,823.1,141.8,822.44,141.35Z" fill="url(#linear-gradient-33)"/><circle cx="156.57" cy="139.43" r="99.12" transform="translate(-18.14 23.54) rotate(-8.13)" fill="#fff"/><circle cx="156.57" cy="139.43" r="95.82" transform="translate(-52.73 151.55) rotate(-45)" fill="url(#linear-gradient-34)"/><path d="M235.59,100.63a.93.93,0,0,0,.45-.11,1,1,0,0,0,.45-1.36,89.64,89.64,0,0,0-96.06-47.75,1,1,0,0,0-.82,1.18,1,1,0,0,0,1.18.81A88.45,88.45,0,0,1,156.57,52a87.07,87.07,0,0,1,78.11,48.1A1,1,0,0,0,235.59,100.63Z" fill="#fff" opacity="0.7"/><circle cx="154.48" cy="141.51" r="81.1" transform="translate(-54.82 150.68) rotate(-45)" fill="#fff"/><path d="M159.5,157.28l-9.18-.21a5.1,5.1,0,0,1-4.81-4.83l-3.36-64.66a4.2,4.2,0,0,1,1.33-3.34,4.36,4.36,0,0,1,3.5-1.09l15.81,1.1a4.83,4.83,0,0,1,3.42,1.53,4.92,4.92,0,0,1,1.29,3.53l-3.27,63.48A4.68,4.68,0,0,1,159.5,157.28Z" fill="url(#linear-gradient-35)"/><path d="M145.34,173.08q3.43-3.29,9.66-3.18,6.41.1,9.73,3.37t3.32,9.54q0,6.06-3.39,9.38T155,195.52q-6.15,0-9.63-3.45t-3.48-9.47Q141.89,176.38,145.34,173.08Z" fill="url(#linear-gradient-36)"/><path d="M518.4,96.25,262.53,526.17c-5.62,9.44,1.72,21,13.4,21.09l507.22,4.17c11.72.1,19.29-11.4,13.77-20.94L545.57,96.39C539.79,86.41,524.3,86.33,518.4,96.25Z" fill="url(#linear-gradient-37)"/><path d="M519.69,121.93,287.31,512.39c-5.1,8.57,1.57,19.06,12.17,19.15l460.66,3.79c10.64.09,17.51-10.36,12.5-19L544.37,122.06C539.12,113,525.05,112.92,519.69,121.93Z" fill="url(#linear-gradient-38)"/><path d="M479.75,389.48l-11.35.15V409.9l-19.6.33V389.89l-40.92.53V375.88l42-63.81,18.49,0v61.49l11.35-.12ZM448.8,373.77V357.12q0-4.15.33-12.09t.52-9.2h-.52a76.61,76.61,0,0,1-5.8,10.78L425.79,374Z" fill="url(#linear-gradient-39)"/><path d="M554.62,360.32q0,25.23-7.87,37.46t-24.38,12.55q-16.06.27-24.29-12.23t-8.23-37.27q0-25.8,8-38t24.52-12.18q16,0,24.13,12.7T554.62,360.32Zm-45.15.36q0,17.86,3,25.56t9.94,7.59c4.56-.06,7.84-2.71,9.87-7.94s3-13.69,3-25.41-1-20.37-3.07-25.54-5.32-7.76-9.83-7.76-7.92,2.62-9.91,7.82S509.47,348.77,509.47,360.68Z" fill="url(#linear-gradient-40)"/><path d="M632.48,387.5l-10.73.14v19.71l-18.51.31V387.88l-38.66.5V374.25l39.71-62,17.46,0V372l10.73-.11Zm-29.24-15.28V356q0-4,.31-11.75c.2-5.14.37-8.12.49-8.94h-.49a75.84,75.84,0,0,1-5.48,10.47L581.5,372.43Z" fill="url(#linear-gradient-41)"/><path d="M435.55,495.66l-30.23,1v-54l30.23-.68v9.33l-19.06.46v11.83l17.74-.46v9.33l-17.74.49v13.9l19.06-.58Z" fill="url(#linear-gradient-42)"/><path d="M459.23,474.38V494.9l-11,.36V441.68l15.1-.34q10.51-.24,15.54,3.61t5,11.88a14.8,14.8,0,0,1-2.49,8.42,17.28,17.28,0,0,1-7.06,5.93q11.6,17.64,15.09,22.75l-12.07.39-12.3-20.1Zm0-9.21,3.54-.1q5.19-.13,7.66-2a6.65,6.65,0,0,0,2.46-5.68q0-3.79-2.52-5.34c-1.68-1-4.28-1.5-7.82-1.42l-3.32.08Z" fill="url(#linear-gradient-43)"/><path d="M508.45,473v20.34l-10.8.34v-53.1l14.83-.33q10.34-.23,15.27,3.58t4.93,11.77a14.77,14.77,0,0,1-2.45,8.35,16.87,16.87,0,0,1-6.94,5.88q11.4,17.49,14.83,22.55l-11.86.38-12.08-19.92Zm0-9.13,3.48-.1c3.4-.09,5.9-.75,7.52-2a6.59,6.59,0,0,0,2.42-5.63q0-3.77-2.47-5.29t-7.68-1.41l-3.27.08Z" fill="url(#linear-gradient-44)"/><path d="M591.32,464.5q0,13-6.08,20.11t-17.49,7.53q-11.46.38-17.62-6.45t-6.16-20q0-13.16,6.18-20.23t17.66-7.31q11.45-.26,17.48,6.54T591.32,464.5Zm-36.23,1q0,8.81,3.18,13.16t9.48,4.17q12.59-.39,12.59-18t-12.53-17.37q-6.3.15-9.5,4.7T555.09,465.49Z" fill="url(#linear-gradient-45)"/><path d="M613.62,470V490l-10.39.34V438.21l14.27-.32q9.93-.22,14.68,3.52T636.93,453a14.72,14.72,0,0,1-2.36,8.19,16.49,16.49,0,0,1-6.67,5.76q11,17.14,14.26,22.13l-11.4.36-11.63-19.55Zm0-9L617,461c3.27-.09,5.69-.73,7.24-1.93a6.52,6.52,0,0,0,2.33-5.52q0-3.69-2.38-5.19t-7.39-1.39l-3.14.08Z" fill="url(#linear-gradient-46)"/><path d="M215.58,945.68s-2.55,14.41-3.8,28.68A9.85,9.85,0,0,0,221.19,985c19,.79,59.65,2.33,74.24,1.68a3.21,3.21,0,0,0,2.82-4.39h0a7.15,7.15,0,0,0-3.67-3.86l-67.14-30.86Z" fill="url(#linear-gradient-47)"/><path d="M213.49,937.21l2,17.24s11.76,5.48,19.79-.69l-4.87-19.22Z" fill="url(#linear-gradient-48)"/><path d="M215,613c-.88,4.5-4.74,224.71,18.8,323.4a3.35,3.35,0,0,1-2,3.89,58.05,58.05,0,0,1-19.17,3.9,5.76,5.76,0,0,1-5.72-4.14c-6.73-22.9-39-137.61-43.18-247.2-4.7-122.45,0-4.17,0-4.17L166.55,613Z" fill="url(#linear-gradient-49)"/><path d="M138.34,953.2s-4.06,7.28-8,26.61a6,6,0,0,0,5.28,7.19c6.27.61,15.93,1.41,23.67,1.36a6,6,0,0,0,5.92-6.68c-.85-7.06-3.52-18.64-11.77-27.66Z" fill="url(#linear-gradient-50)"/><path d="M134.78,931l4.78,26.08s4.73,3.51,14.08,1L151.35,930Z" fill="url(#linear-gradient-51)"/><path d="M121.86,619.78C102.61,736,126,906.94,133.94,940.4a5.23,5.23,0,0,0,4.21,4,35.16,35.16,0,0,0,15.06-.6,4.8,4.8,0,0,0,3.44-4.41c1.06-27.05-.85-193.14,17.09-258.78a14.92,14.92,0,0,1,5.75-8.23l34.82-24.75,2.67-40Z" fill="url(#linear-gradient-52)"/><path d="M293.26,454.16c-2.92,20.81-6,25.6-8.41,25.72-7.64.39-6.1-46.53-34.05-70.27-17.65-15-41.75-16.23-60.67-14.48q13.25,47.47,26.48,94.95c3.85,9.46,20.65,47.71,58.67,59.32,7.74,2.36,19.26,5.88,30,1.27,21.14-9.09,31.06-46.34,21.61-93C322.42,456,316.27,454.28,293.26,454.16Z" fill="url(#linear-gradient-53)"/><path d="M286.53,373l3.5,19.78c5.62,24.2,6.15,44.36,3.23,61.39,4.83.2,9.9.54,15.19,1.06,6.51.64,12.66,1.49,18.42,2.47-3-24.61-19.42-65.47-19.42-65.47C297.58,378,296.4,387.25,286.53,373Z" fill="url(#linear-gradient-54)"/><path d="M326.52,331.31a13.06,13.06,0,0,0-10.31,4.63l-25,29.57s-4.54-.93-5-9.62-9.66-9.75-9.66-9.75,1.33,12.13,3.87,30.08c1.45,10.27,7.52,17.77,12.45,22.31l14.44-5c13.24-18.93,21.46-39.8,26-62.07Z" fill="url(#linear-gradient-55)"/><path d="M91.32,411.76c1.66-.43,13-12.18,14.74-12.5,28-5.34,97.94-24.18,144.74,10.35.12,1,.2,1.79.24,2.45a25,25,0,0,1,1.93,3.31A158.38,158.38,0,0,0,268.77,440a16,16,0,0,0-3.26,4.61c-11.24,24.09-53.87,120.3-46.38,179.13a5.56,5.56,0,0,1-4.72,6.26c-16.55,2.29-65.83,7.87-91.29-2.64a3.91,3.91,0,0,1-2.41-3.67c.17-11.81-.33-63-19.11-124.79a70.1,70.1,0,0,1-1.73-7c-.23.47-.45.94-.67,1.42Z" fill="url(#linear-gradient-56)"/><path d="M134.07,393.92c-52.24,3.82-63.16,33.67-99.27,15.42l6.4,55.91C54.59,480,74.8,490.1,100.27,493.88Z" fill="url(#linear-gradient-57)"/><path d="M169.77,343.35c-9,17.85-12.69,36-13.81,52.94,1.93.72,27.62,18.54,44.82,1.29-3.68-11.84-3.07-29.67-2.13-47.95Z" fill="url(#linear-gradient-58)"/><path d="M216.39,296.44c.49.79,13.33,61.35,13.33,61.35L195,364.38l-20.7-55.58S208.15,283.1,216.39,296.44Z" fill="url(#linear-gradient-59)"/><path d="M187.55,313.74a5.1,5.1,0,0,0-.79,4.41l8.48,29.68a5,5,0,0,0,.56,1.27c1.37,2.19,6.29,8.81,12.93,3.37,5.65-4.63,10.91-8.81,15.63-9.85a5.07,5.07,0,0,1,6,3.95,190.35,190.35,0,0,1,3.82,27.72,5.06,5.06,0,0,1-4.45,5.22c-6.9.86-20.43,2.12-31.76.7a5.1,5.1,0,0,1-4.11-3.22c-3-7.7-11.39-29.24-14.7-34.95-3.08-5.31-11.25-5.81-15-5.74a5.12,5.12,0,0,1-3.78-1.57c-3-3.08-7.73-10.06.34-17.54a5.07,5.07,0,0,0,.27-7.07c-3.26-3.66-6.24-9.7,0-16.51s13.88-5.63,18.74-3.67a5.28,5.28,0,0,0,6.15-1.54,3.35,3.35,0,0,1,3.06-1.31,4.93,4.93,0,0,0,5.35-4.56c.33-4.77,2.58-10.47,10.88-12.51,15.22-3.74,23.66,11.27,23.92,22.09S212.61,306.05,203,304.73C195.87,303.76,190.11,310.24,187.55,313.74Z" fill="url(#linear-gradient-60)"/><path d="M184.4,353.3s-3.24-19.17-11-20.56-15.68,4.53-8.59,15.5C173.67,361.88,184.4,353.3,184.4,353.3Z" fill="url(#linear-gradient-61)"/><path d="M171.66,284.33a17.58,17.58,0,0,1,4.42.41c3.67.78,8.56,2.67,7.29,6.2-1.91,5.3-11.84.35-17.12,8.9-4.66,7.53-.85,15.71-2.27,23.83-.7,3.95-3.24,9.82-6.76,12.12-1.58,1-14,3-14.72.8L139,325.35c-3.11-10.12,8.86-27,15-33.77C158.83,286.32,165.29,284.59,171.66,284.33Z" fill="url(#linear-gradient-62)"/><path d="M159.85,324.9l-11.92,9.93c-22.86,9.72-39.46,21.17-51.5,33.57a67.91,67.91,0,0,0-22.65-25.07C96.81,332,114,327.27,114,327.27,160.46,308.57,159.85,324.9,159.85,324.9Z" fill="url(#linear-gradient-63)"/><path d="M96.43,368.4c-37.57,38.69-26.59,19-26.89,52-.11,12.3-10.79,59.26-10.79,59.26-114.91-49.65-19-117.41,15-136.34A67.91,67.91,0,0,1,96.43,368.4Z" fill="url(#linear-gradient-64)"/></svg>