<svg id="Capa_1" data-name="Capa 1" xmlns="http://www.w3.org/2000/svg" viewBox="0 0 1000 971.77"><path d="M149.48,112.85C-44.9,309.69-35.77,590.38,96.89,768.81,231,949.12,482.78,1031.34,713.31,923.59c196.08-91.65,320.34-307.3,278.63-541.91C955.27,175.38,795.93,37.22,660.11,0c0,47.51-.14,94.83.29,142.15,0,3.18,3.68,7.29,6.73,9.3,11.18,7.37,23.16,13.52,34.22,21C796.12,236.81,848,327.33,859.28,440.23c7.25,72.72-7.81,142.22-44.12,206.28-58.41,103-147.06,164.34-263.25,182.14-92.91,14.22-180.27-6-257.93-60.29C209.81,709.57,159.05,628.73,142.9,527.27c-10.64-66.84-3.13-132.2,23-194.91,18.63-44.67,44.89-84.32,82.6-120.67l79.35,82.22V33.27H66.13Z"/></svg>