<svg id="Capa_1" data-name="Capa 1" xmlns="http://www.w3.org/2000/svg" viewBox="0 0 1000 931.1"><path d="M599.68,467q0-214,.1-428c0-16.19-4.92-29.6-20.12-36.13-13.18-5.66-26-2.49-37.48,6.69Q385.69,134.92,228.89,259.94a30.35,30.35,0,0,1-17.29,6.16c-46.4.49-92.87,1.6-139.21-.14A70.2,70.2,0,0,0,0,338.25q2.78,127.44,0,255C-.84,633.41,28.39,667.45,72.46,666c45.49-1.53,91.08-.61,136.61,0,6.75.08,14.74,2.51,20,6.62,50.13,39.44,99.78,79.5,149.6,119.35,54.88,43.91,109.5,88.16,165,131.23,7.55,5.86,20.2,9,29.69,7.67,19-2.65,26.3-15.41,26.3-38.38Q599.72,679.71,599.68,467ZM933.33,486.5c1.1,22.09-6.71,63.36-19.67,103.37-19,58.73-50.84,110.19-93.95,154.62-5,5.11-9.8,11.33-12,17.93-5.24,15.59,1.29,30.79,15,38.91,12.65,7.5,30.2,4.39,42.58-8.28,84.9-86.93,129.52-191.66,134.38-312.59,3.05-75.91-13.24-148.68-46.42-217.14-22.89-47.23-52.94-89.68-91-126.1-8.87-8.48-19.2-13.25-31.85-8.88-27.11,9.35-32.67,37.25-11.93,58.68C893.69,264.8,931.78,357.82,933.33,486.5Zm-66.12-35.1c-3.08-16.73-7.08-48.12-14.85-78.54-14.2-55.55-43.85-102.71-84.86-142.58-8.78-8.53-19.8-11.62-32.36-7.56-24.06,7.78-31.57,38-10.88,58.56,46,45.64,70.75,102,74.9,166.27,5,77.95-19.51,146.15-73.78,203.15-4.65,4.89-9.19,10.68-11.44,16.89-5.7,15.73.95,31.83,15.17,40,13.09,7.53,30.15,3.84,43.32-9.79C834.83,633.2,864.65,555.27,867.21,451.4Z"/></svg>