<svg xmlns="http://www.w3.org/2000/svg" viewBox="0 0 1000 459.09"><defs><style>.cls-1{isolation:isolate;}.cls-2{fill:#ffc0bb;}.cls-3{fill:#daeef7;}.cls-4{fill:#333;}.cls-5{fill:#e87b50;}.cls-11,.cls-14,.cls-19,.cls-5{opacity:0.3;mix-blend-mode:multiply;}.cls-14,.cls-6{fill:#feb546;}.cls-7{fill:#f99893;}.cls-11,.cls-8{fill:#ff5b7e;}.cls-17,.cls-9{fill:#fc8d84;}.cls-16,.cls-9{opacity:0.6;}.cls-10{fill:#fff;}.cls-12{fill:#07085b;}.cls-13{fill:#050735;}.cls-15{fill:#f46c0f;}.cls-18{fill:#752911;}.cls-19,.cls-21{fill:#02ccc0;}.cls-20{fill:#224887;}</style></defs><g class="cls-1"><g id="Layer_1" data-name="Layer 1"><polygon class="cls-2" points="640.46 409.15 645.54 447.24 649.32 454.05 656.12 449.13 653.35 410.41 640.46 409.15"/><rect class="cls-3" x="641.06" y="440.28" width="3.43" height="34.07" rx="0.29" transform="translate(183.31 1098.57) rotate(-89.81)"/><path class="cls-4" d="M658.29,445.24l1.1,9.54c.14,1.18-.53,2.24-1.39,2.24l-30-.1a2.17,2.17,0,0,1-2-1.41c-.42-.94-.5-2.35.85-4.25,2.7-3.79,11.54-4.69,15.87-7.92l14,.05C657.51,443.39,658.17,444.18,658.29,445.24Z"/><path class="cls-3" d="M644.84,448.89h0a.65.65,0,0,0,.18-.78c-.59-1.31-2.42-4.49-6.17-3.85a.53.53,0,0,0-.33.62h0c0,.29.23.48.44.44,3.36-.56,4.92,2.25,5.39,3.34C644.45,448.91,644.66,449,644.84,448.89Z"/><path class="cls-3" d="M641.72,450.11h0a.66.66,0,0,0,.18-.78c-.59-1.31-2.42-4.5-6.17-3.85-.22,0-.37.32-.33.62h0c0,.28.23.47.44.44,3.36-.56,4.92,2.24,5.39,3.34C641.33,450.13,641.54,450.22,641.72,450.11Z"/><path class="cls-3" d="M638.82,451.24h0a.63.63,0,0,0,.17-.77c-.58-1.31-2.42-4.5-6.17-3.86-.21,0-.36.33-.33.62h0c0,.29.23.48.44.44,3.37-.56,4.92,2.25,5.4,3.35A.34.34,0,0,0,638.82,451.24Z"/><path class="cls-5" d="M650,457c2.39-7.69,6.47-8.53,8.7-8.34l.7,6.13c.14,1.18-.53,2.24-1.39,2.24Z"/><polygon class="cls-2" points="703.16 414.5 718.44 447.24 722.22 454.05 730.08 445.39 718.87 413.87 703.16 414.5"/><rect class="cls-3" x="713.96" y="440.28" width="3.43" height="34.07" rx="0.29" transform="translate(255.96 1171.46) rotate(-89.81)"/><path class="cls-4" d="M731.19,445.24l1.1,9.54c.13,1.18-.53,2.24-1.39,2.24l-30-.1a2.17,2.17,0,0,1-2-1.41c-.42-.94-.5-2.35.85-4.25,2.7-3.79,11.54-4.69,15.87-7.92l14,.05C730.41,443.39,731.07,444.18,731.19,445.24Z"/><path class="cls-3" d="M717.74,448.89h0a.65.65,0,0,0,.18-.78c-.59-1.31-2.42-4.49-6.17-3.85a.53.53,0,0,0-.33.62h0c0,.29.23.48.44.44,3.36-.56,4.92,2.25,5.39,3.34C717.35,448.91,717.56,449,717.74,448.89Z"/><path class="cls-3" d="M714.62,450.11h0a.64.64,0,0,0,.17-.78c-.58-1.31-2.41-4.5-6.16-3.85-.22,0-.37.32-.33.62h0c0,.28.23.47.44.44,3.36-.56,4.92,2.24,5.39,3.34C714.23,450.13,714.44,450.22,714.62,450.11Z"/><path class="cls-3" d="M711.72,451.24h0a.65.65,0,0,0,.17-.77c-.58-1.31-2.42-4.5-6.17-3.86-.22,0-.36.33-.33.62h0c0,.29.23.48.44.44,3.37-.56,4.92,2.25,5.4,3.35A.34.34,0,0,0,711.72,451.24Z"/><path class="cls-5" d="M722.89,457c2.39-7.69,6.47-8.53,8.69-8.34l.71,6.13c.13,1.18-.53,2.24-1.39,2.24Z"/><polygon class="cls-2" points="383.16 409.15 379.52 445.37 374.3 454.05 366.55 445.39 370.27 410.41 383.16 409.15"/><rect class="cls-3" x="363.81" y="455.61" width="34.07" height="3.43" rx="0.29" transform="translate(-1.53 1.27) rotate(-0.19)"/><path class="cls-6" d="M365.33,445.24l-1.1,9.54c-.13,1.18.53,2.24,1.39,2.24l30-.1a2.17,2.17,0,0,0,2-1.41c.42-.94.5-2.35-.85-4.25-2.7-3.79-11.54-4.69-15.87-7.92l-14,.05C366.11,443.39,365.45,444.18,365.33,445.24Z"/><path class="cls-3" d="M378.78,448.89h0a.65.65,0,0,1-.18-.78c.59-1.31,2.42-4.49,6.17-3.85a.53.53,0,0,1,.33.62h0c0,.29-.23.48-.44.44-3.36-.56-4.92,2.25-5.39,3.34C379.17,448.91,379,449,378.78,448.89Z"/><path class="cls-3" d="M381.9,450.11h0a.64.64,0,0,1-.17-.78c.58-1.31,2.41-4.5,6.17-3.85.21,0,.36.32.32.62h0c0,.28-.23.47-.44.44-3.36-.56-4.92,2.24-5.39,3.34C382.29,450.13,382.08,450.22,381.9,450.11Z"/><path class="cls-3" d="M384.8,451.24h0a.65.65,0,0,1-.17-.77c.59-1.31,2.42-4.5,6.17-3.86.22,0,.36.33.33.62h0c0,.29-.23.48-.44.44-3.36-.56-4.92,2.25-5.39,3.35C385.19,451.26,385,451.35,384.8,451.24Z"/><path class="cls-5" d="M373.64,457c-2.4-7.69-6.48-8.53-8.7-8.34l-.71,6.13c-.13,1.18.53,2.24,1.39,2.24Z"/><polygon class="cls-2" points="233.72 409.15 240.84 445.37 235.62 454.05 227.88 445.39 220.52 413.24 233.72 409.15"/><rect class="cls-3" x="225.13" y="455.61" width="34.07" height="3.43" rx="0.29" transform="translate(-1.53 0.81) rotate(-0.19)"/><path class="cls-4" d="M226.65,445.24l-1.09,9.54c-.14,1.18.52,2.24,1.39,2.24l30-.1a2.19,2.19,0,0,0,2-1.41c.42-.94.49-2.35-.86-4.25-2.7-3.79-11.53-4.69-15.86-7.92l-14,.05C227.44,443.39,226.78,444.18,226.65,445.24Z"/><path class="cls-3" d="M240.1,448.89h0a.64.64,0,0,1-.17-.78c.58-1.31,2.42-4.49,6.17-3.85a.55.55,0,0,1,.33.62h0c0,.29-.23.48-.44.44-3.37-.56-4.92,2.25-5.4,3.34C240.49,448.91,240.28,449,240.1,448.89Z"/><path class="cls-3" d="M243.22,450.11h0a.67.67,0,0,1-.17-.78c.59-1.31,2.42-4.5,6.17-3.85.22,0,.36.32.33.62h0c0,.28-.23.47-.44.44-3.36-.56-4.92,2.24-5.39,3.34C243.61,450.13,243.41,450.22,243.22,450.11Z"/><path class="cls-3" d="M246.13,451.24h0a.63.63,0,0,1-.17-.77c.58-1.31,2.41-4.5,6.16-3.86a.53.53,0,0,1,.33.62h0c0,.29-.23.48-.44.44-3.36-.56-4.92,2.25-5.39,3.35A.34.34,0,0,1,246.13,451.24Z"/><path class="cls-5" d="M235,457c-2.39-7.69-6.47-8.53-8.7-8.34l-.7,6.13c-.14,1.18.52,2.24,1.39,2.24Z"/><polygon class="cls-2" points="317.76 419.05 302.48 447.24 298.7 454.05 290.84 445.39 302.95 414.16 317.76 419.05"/><rect class="cls-3" x="288.21" y="455.61" width="34.07" height="3.43" rx="0.29" transform="translate(-1.53 1.02) rotate(-0.19)"/><path class="cls-6" d="M289.73,445.24l-1.1,9.54c-.13,1.18.53,2.24,1.39,2.24l30-.1a2.17,2.17,0,0,0,1.95-1.41c.42-.94.5-2.35-.85-4.25-2.7-3.79-11.54-4.69-15.87-7.92l-14,.05C290.52,443.39,289.85,444.18,289.73,445.24Z"/><path class="cls-3" d="M303.18,448.89h0a.65.65,0,0,1-.18-.78c.59-1.31,2.42-4.49,6.17-3.85a.53.53,0,0,1,.33.62h0c0,.29-.23.48-.44.44-3.36-.56-4.92,2.25-5.39,3.34C303.57,448.91,303.36,449,303.18,448.89Z"/><path class="cls-3" d="M306.3,450.11h0a.64.64,0,0,1-.17-.78c.58-1.31,2.41-4.5,6.17-3.85.21,0,.36.32.32.62h0c0,.28-.23.47-.44.44-3.36-.56-4.91,2.24-5.39,3.34C306.69,450.13,306.48,450.22,306.3,450.11Z"/><path class="cls-3" d="M309.2,451.24h0a.65.65,0,0,1-.17-.77c.59-1.31,2.42-4.5,6.17-3.86a.53.53,0,0,1,.33.62h0c0,.29-.23.48-.44.44-3.36-.56-4.92,2.25-5.39,3.35A.35.35,0,0,1,309.2,451.24Z"/><path class="cls-5" d="M298,457c-2.39-7.69-6.48-8.53-8.7-8.34l-.71,6.13c-.13,1.18.53,2.24,1.39,2.24Z"/><polygon class="cls-2" points="166.14 419.05 150.86 447.24 147.08 454.05 139.23 445.39 151.33 414.16 166.14 419.05"/><rect class="cls-3" x="136.59" y="455.61" width="34.07" height="3.43" rx="0.29" transform="translate(-1.53 0.52) rotate(-0.19)"/><path class="cls-4" d="M138.11,445.24,137,454.78c-.14,1.18.52,2.24,1.39,2.24l30-.1a2.19,2.19,0,0,0,2-1.41c.42-.94.49-2.35-.86-4.25-2.7-3.79-11.53-4.69-15.86-7.92l-14,.05C138.9,443.39,138.24,444.18,138.11,445.24Z"/><path class="cls-3" d="M151.56,448.89h0a.64.64,0,0,1-.17-.78c.58-1.31,2.42-4.49,6.17-3.85a.55.55,0,0,1,.33.62h0c0,.29-.23.48-.44.44-3.37-.56-4.92,2.25-5.4,3.34C152,448.91,151.74,449,151.56,448.89Z"/><path class="cls-3" d="M154.68,450.11h0a.67.67,0,0,1-.17-.78c.59-1.31,2.42-4.5,6.17-3.85.22,0,.36.32.33.62h0c0,.28-.23.47-.44.44-3.36-.56-4.92,2.24-5.39,3.34C155.07,450.13,154.87,450.22,154.68,450.11Z"/><path class="cls-3" d="M157.59,451.24h0a.63.63,0,0,1-.17-.77c.58-1.31,2.41-4.5,6.16-3.86a.53.53,0,0,1,.33.62h0c0,.29-.23.48-.44.44-3.36-.56-4.92,2.25-5.39,3.35A.34.34,0,0,1,157.59,451.24Z"/><path class="cls-5" d="M146.42,457c-2.39-7.69-6.47-8.53-8.7-8.34l-.7,6.13c-.14,1.18.52,2.24,1.39,2.24Z"/><path class="cls-4" d="M646.52,294.15s-32.6,41.48-30.71,52.48,23.88,86.09,23.88,86.09,14.77,1.89,22,0c0,0-12.25-76.67-12.25-81.7s12.25-17.28,12.25-17.28-6,14.77,1.89,35.51,48.39,71,48.39,71,15.71-5.34,16.34-10.37c0,0-33.94-64.73-33.31-70.07s19.48-64.1,19.48-64.1l-6.59-10.37Z"/><path class="cls-2" d="M696.41,84.7a.45.45,0,0,0,.68-.39c-.08-2.72-.28-11.3.41-11.47s1.18,7.44,1.93,7.67.21-7.24,1.12-7.32,1.18,6.73,1.58,6.83.83-6.46,1.34-6.83.89,6.68,1.34,6.94,1.8-4.71,2.24-4.64.74,0,.89,12.08l-.14,4.74-2.21,3.81-5.24-.76s-9.47-12.27-9.27-12.87S691.8,81.86,696.41,84.7Z"/><path class="cls-2" d="M409.08,103.17a.44.44,0,0,0,.67-.38c-.08-2.73-.28-11.3.41-11.48s1.18,7.45,1.93,7.67.21-7.23,1.12-7.31,1.18,6.73,1.58,6.83.83-6.47,1.34-6.84.89,6.69,1.34,7,1.8-4.71,2.24-4.64.74,0,.89,12.08l-.14,4.74-2.21,3.81-5.24-.76s-9.47-12.27-9.27-12.87S404.46,100.34,409.08,103.17Z"/><path class="cls-2" d="M464.33,142.24a.37.37,0,0,1-.61-.2c-.38-2.22-1.61-9.18-2.2-9.22s.26,6.22-.31,6.52-1.35-5.81-2.1-5.73.14,5.63-.16,5.78-1.73-5.09-2.2-5.31.37,5.55.05,5.83-2.23-3.51-2.57-3.38-.6.15,1.25,9.91l.89,3.81,2.4,2.72,4.11-1.46s5.67-11.47,5.4-11.92S467.6,139.2,464.33,142.24Z"/><path class="cls-2" d="M570.74,273.93a.36.36,0,0,1,.58-.27c1.8,1.34,7.51,5.52,8,5.14s-4.48-4.32-4.28-4.93,5,3.27,5.48,2.69-4-4-3.88-4.29,4.77,2.48,5.26,2.32-4.11-3.76-4.07-4.18,4,1,4.2.67.32-.52-7.76-6.3L571,262.64l-3.62-.3-2,3.9s3.83,12.2,4.34,12.34S570.48,278.39,570.74,273.93Z"/><path class="cls-2" d="M306.86,103.91a.45.45,0,0,1-.68-.39c.08-2.72.28-11.3-.4-11.47s-1.19,7.44-1.94,7.67-.21-7.24-1.12-7.32-1.18,6.73-1.58,6.83-.83-6.46-1.34-6.83-.89,6.68-1.33,6.94-1.81-4.71-2.25-4.64-.74,0-.89,12.08l.15,4.74,2.21,3.81,5.23-.76s9.48-12.27,9.27-12.87S311.47,101.07,306.86,103.91Z"/><path class="cls-2" d="M635,161.87a.45.45,0,0,1-.68-.39c.08-2.73.29-11.3-.4-11.48s-1.19,7.45-1.94,7.67-.2-7.23-1.12-7.31-1.18,6.73-1.57,6.83-.84-6.47-1.35-6.84-.89,6.69-1.33,7-1.81-4.71-2.25-4.64-.74,0-.89,12.08l.15,4.74,2.21,3.81,5.24-.76s9.47-12.27,9.26-12.87S639.63,159,635,161.87Z"/><path d="M661.53,301.06c.7.95,1.39,1.91,2.06,2.88s1.34,1.93,2,2.9l2,2.94,1.93,3,.13.21-.08.23c-.61,1.73-1.2,3.47-1.84,5.19l-.93,2.59-1,2.58c-.65,1.71-1.31,3.43-2,5.13s-1.38,3.4-2.13,5.08c.49-1.77,1-3.53,1.57-5.28s1.11-3.5,1.69-5.24l.88-2.61.91-2.6c.6-1.73,1.24-3.45,1.86-5.18l0,.45-1.84-3-1.8-3c-.59-1-1.19-2-1.77-3.06S662.08,302.1,661.53,301.06Z"/><polygon class="cls-2" points="690.41 170.54 691.98 189.19 675.53 188.4 677.43 171.89 690.41 170.54"/><path class="cls-2" d="M785.33,195,771.5,211.2l-9.72-29.31c-.56-2.57-2.68-12.23-3.12-12.4s-.8.12-1.49,4.65a.37.37,0,0,1-.62.23c-1.71-1.54-7.15-6.36-7.64-6s4.17,4.83,3.9,5.45-4.79-3.83-5.34-3.28,3.71,4.44,3.55,4.75-4.63-3-5.15-2.87,3.84,4.23,3.76,4.66-4-1.4-4.23-1.08-.38.5,7.33,7.18l3.14,2.5h0c.28,6.36,1,29.93,7.59,43.59,3.52,7.3,20.27-4.71,26.92-10Z"/><path class="cls-7" d="M676.52,179.74l.91-7.85,13-1.35L691,177C688.37,179.57,683.73,182.24,676.52,179.74Z"/><path class="cls-8" d="M732.07,146.57c-.63-9.42-20.53-57-20.53-57s-11.1.84-15.92,8.17c0,0,13,38.55,13.83,45s-4.82,39.38-9.22,41.69l-8-.63s-5.66,7.12-17.39.21c0,0-15.71,2.51-21.57,8.8,0,0-19.12,19.43-20.06,17.7S637,167.68,637,167.68l-14.93,1.41s-8.38,60.76-3.14,63.32C628.3,237,653.15,220,653.15,220c0,3.7.26,6.92.16,8.92-2.36,46.45-8.8,64.73-8.8,64.73s34.14,9.84,70,2.09c0,0,10.9-61.59,7.75-92.59C722.22,203.13,732.7,156,732.07,146.57Z"/><path class="cls-8" d="M805.83,152.68s-.42,9.59-4.23,15.51c-3.28,5.1-7.78,14.14.66,19.76s20.62-2,20.79-2.58,4.25-6.88,3.93-11.94,1.93-11.11-2.24-15.39S805.83,152.68,805.83,152.68Z"/><path class="cls-8" d="M850.21,171.88A35.06,35.06,0,0,1,846.76,154c.1-2.18.94-8.43-3.34-14.34-6.18-8.55-13.9-11.38-22.46-9.83-9.91,1.79-15.8,13.75-15.21,21.14l18.16.35-5,1c-12,31-4.41,32.15-2.39,36.14s14.49,8.08,24.27,6.37C856.53,192,854.42,180.71,850.21,171.88Z"/><path class="cls-2" d="M831.44,168.09l.56,14.82s-5.59,4.57-15.31-1.58c0,0,1.93-2.15,1.79-7.77S831.44,168.09,831.44,168.09Z"/><path class="cls-9" d="M831.44,168.09l.24,6.18c-2.3,3.8-6.72,5.57-13.78,4.48a17.09,17.09,0,0,0,.58-5.19C818.34,167.82,831.44,168.09,831.44,168.09Z"/><path class="cls-7" d="M810.74,152.91c.28,2.07-.84,3.92-2.49,4.14s-3.21-1.27-3.49-3.34.84-3.91,2.49-4.13S810.46,150.85,810.74,152.91Z"/><path class="cls-2" d="M807.93,161.11a29.91,29.91,0,0,1,.3-7.58c.08-.48.13-1,.17-1.47a16.11,16.11,0,1,1,31.65,5.34,3.48,3.48,0,0,1,3.1.55c1.64,1.3,1.64,4,0,6.07s-4.28,2.64-5.92,1.33a3.1,3.1,0,0,1-.58-.62,15.1,15.1,0,0,1-18,9.63A14.84,14.84,0,0,1,807.93,161.11Z"/><path class="cls-7" d="M821,152.29c-.25.88-.5,1.74-.8,2.58a10,10,0,0,1-.52,1.21,3.42,3.42,0,0,1-.72,1l-.11.08-.12.09a1.91,1.91,0,0,0-.32.24,1.52,1.52,0,0,0-.26.3,1.27,1.27,0,0,0-.2.36,1.82,1.82,0,0,0,.18,1.52,2.69,2.69,0,0,0,1,1,3.69,3.69,0,0,0,1.31.44,5.45,5.45,0,0,1-1.15-.68,2.8,2.8,0,0,1-.79-1,1.41,1.41,0,0,1-.06-1.1,1.09,1.09,0,0,1,.14-.23.86.86,0,0,1,.18-.2,2,2,0,0,1,.23-.17c.09,0,.22-.15.32-.22a3.72,3.72,0,0,0,.84-1.21,7.09,7.09,0,0,0,.45-1.32A11,11,0,0,0,821,152.29Z"/><path class="cls-8" d="M825,151.55a14,14,0,0,1,2.11.17,7.14,7.14,0,0,1,1.87.57,6.51,6.51,0,0,1,1.63,1.06,9.87,9.87,0,0,1,.75.7c.26.25.47.53.76.79a5.87,5.87,0,0,0-.3-1.09,4.89,4.89,0,0,0-.57-1,4.53,4.53,0,0,0-1.81-1.48,4.8,4.8,0,0,0-2.29-.43A4.39,4.39,0,0,0,825,151.55Z"/><path class="cls-8" d="M818.91,150.28a4.22,4.22,0,0,0-1.65-1.54,4.72,4.72,0,0,0-2.25-.59,4.56,4.56,0,0,0-2.27.57,4.69,4.69,0,0,0-.94.66,6.55,6.55,0,0,0-.73.85c.37-.11.69-.27,1-.39s.65-.25,1-.32a6.75,6.75,0,0,1,1.93-.26,7.21,7.21,0,0,1,1.93.28A13.4,13.4,0,0,1,818.91,150.28Z"/><path class="cls-8" d="M838.06,157.36a4.81,4.81,0,0,1,2,0l.86-.14-.21-1.07-.32-.15.7-2.91-.41-3s-2.65-8.68-2.77-8.91-3.15-3.75-3.35-3.94-5.78-1.06-5.78-1.06-8.66-5.07-8.79.66,5.78,10.67,6.21,10.55c-.73-1.52.25-4.88.25-4.88C829.42,149.65,836.85,156.3,838.06,157.36Z"/><path class="cls-10" d="M824.7,164.25a4.61,4.61,0,0,1-8.85-.95Z"/><path class="cls-11" d="M648.31,277.11c-2,11.48-3.8,16.52-3.8,16.52s34.14,9.84,70,2.09c0,0,10.9-61.59,7.75-92.59C722.22,203.13,708.2,265.3,648.31,277.11Z"/><path d="M796.8,179.87s-13.62,13.21-16.55,19.49c0,0,5.24,19.48,8.27,22.21l12.05-5Z"/><path class="cls-2" d="M911.61,197.08c-.24-.24-3.36,2.18-3.51,1.81S911,194,910.48,194s-3.78,3.82-4,3.58,2.78-4.56,2.18-4.92-3.7,4.46-4.06,4,3-5.35,2.35-5.6-4.34,5.15-5.54,6.86a.35.35,0,0,1-.6-.07c-1.52-3.88-1.87-4.09-2.25-3.82s-1.75,11.47-1.75,11.47l-25,20.46s-15.06-32-19.23-34.38c-1-.6-3.87-2.72-6.28-3l-.66,27.7c6.69,11.28,18.37,28.86,26.08,28.6,9.15-.31,23.27-23.34,28.43-32.31h0l6.45-7.65C912.05,197.45,911.85,197.32,911.61,197.08Z"/><path class="cls-2" d="M280.35,184.57c-.31-.2-3.1,3.17-3.36,2.81s1.92-6,1.39-5.85-3.15,5.05-3.43,4.83,1.91-5.59,1.17-5.84-2.92,5.72-3.43,5.28,1.89-6.5,1.19-6.63-3.44,6.62-4.33,8.76a.37.37,0,0,1-.66.06c-2.59-3.81-3-4-3.36-3.57s.89,12.81.89,12.81L244.34,225.4s-24-30.9-29.1-32.48c-1.27-.39-4.85-2-7.51-1.7l6,30.08c10,10.57,26.84,26.72,35.11,24.57,9.8-2.55,19.48-30.86,22.88-41.79h0l5.1-9.83C280.92,184.86,280.67,184.78,280.35,184.57Z"/><path class="cls-2" d="M519.66,330l38.39,113.56s13.18,11.41,12.61,4.75c-.13-1.55-2.08-12.56-2.24-14.6-1.39-17.09-5.19-50.61-8.24-62.12-3.3-12.44-11.14-33.12-11.14-33.12Z"/><path class="cls-12" d="M666.28,143.45,665,154.29l7.41-12.84s-4.22-3.77-4.68-3A40.36,40.36,0,0,0,666.28,143.45Z"/><path class="cls-7" d="M668.13,155c.39,2.24-.74,4.31-2.53,4.62s-3.56-1.24-4-3.48.74-4.31,2.53-4.62S667.73,152.8,668.13,155Z"/><path class="cls-2" d="M665.44,164.11a32.33,32.33,0,0,1,0-8.28c.06-.54.09-1.08.12-1.62a17.58,17.58,0,1,1,34.75,4.39,3.83,3.83,0,0,1,3.4.46c1.84,1.36,2,4.32.28,6.62s-4.55,3.08-6.39,1.73a3.23,3.23,0,0,1-.67-.66c-2.67,8.23-11,13.24-19.21,11.32A16.2,16.2,0,0,1,665.44,164.11Z"/><path class="cls-7" d="M679.29,153.9c-.31,1-.58,1.9-.9,2.81a6.55,6.55,0,0,1-1.23,2.37l-.1.08a1,1,0,0,1-.13.1,3.26,3.26,0,0,0-.36.29,2,2,0,0,0-.5.82,2.11,2.11,0,0,0,.29,1.78,3.42,3.42,0,0,0,2.76,1.39,4.2,4.2,0,0,1-2.07-1.79,1.35,1.35,0,0,1-.08-1.07,1.31,1.31,0,0,1,.3-.41c.05-.07.15-.11.22-.17l.16-.13.19-.15a3.88,3.88,0,0,0,.9-1.41,8.15,8.15,0,0,0,.41-1.5A10.16,10.16,0,0,0,679.29,153.9Z"/><path class="cls-4" d="M684.54,156.77a1.53,1.53,0,0,0,1.14,1.84,1.54,1.54,0,1,0-1.14-1.84Z"/><path class="cls-4" d="M671.51,154.62a1.53,1.53,0,0,0,1.14,1.84,1.54,1.54,0,1,0-1.14-1.84Z"/><path class="cls-12" d="M683.63,152.91a15.63,15.63,0,0,1,2.3.09,7.87,7.87,0,0,1,2.07.53,7.27,7.27,0,0,1,1.82,1.09,11.13,11.13,0,0,1,.86.73c.28.26.53.55.86.82a7.25,7.25,0,0,0-.38-1.17,5.12,5.12,0,0,0-.67-1.06,4.92,4.92,0,0,0-2-1.52,5.07,5.07,0,0,0-2.51-.37A4.71,4.71,0,0,0,683.63,152.91Z"/><path class="cls-12" d="M676.92,151.8a4.71,4.71,0,0,0-1.87-1.61,5.18,5.18,0,0,0-2.49-.53,4.83,4.83,0,0,0-2.44.72,5.26,5.26,0,0,0-1,.75,7.13,7.13,0,0,0-.77,1c.4-.14.74-.33,1.1-.47s.69-.31,1-.39a7.32,7.32,0,0,1,2.09-.38,7.69,7.69,0,0,1,2.12.22A14.82,14.82,0,0,1,676.92,151.8Z"/><path class="cls-12" d="M668.75,133.54s-5-1.25,1.39-4,21.78-3.69,29.41,3.59c0,0,2.88-3.31,5.21-1.67s-2.68,3.06-2.68,3.06,3.34.83,3.89,2.74c.41,1.41-1.64.89-2.73.53,1.79.85,7.73,7.46,0,21-1.21-.64-5.54-13.38-5.54-13.38S678.24,150,682,143.07c0,0-20.48,5.94-15.47-2.34C666.53,140.73,659.66,139.32,668.75,133.54Z"/><path class="cls-12" d="M703.21,158.92a3.3,3.3,0,0,0-3.09-.12c-1.83.76-2.85,5-2.85,5s-8.44,2.58-2.17-16.69c6.67-20.5,5.48,3.35,5.48,3.35Z"/><path class="cls-10" d="M674.45,165.38a4.16,4.16,0,0,0,7.91,1.34Z"/><path d="M851.47,187.79l12.36,16.6S852.52,222.4,850,226l-2.94-4.55s-8.58-13-7.75-14.51S851.47,187.79,851.47,187.79Z"/><path class="cls-2" d="M810.17,304.36s16.12,59.42,22.59,64.94c4.14,3.53,73.15,56.61,73.46,56.23s8.37-9.64,8.37-9.64S853,360.29,851.11,355.4s-8.73-56.7-8.73-56.7Z"/><path class="cls-2" d="M802.77,179s35.35,2.36,42.73,4.56c0,0,.16,7-1.49,8.4s-18.22,7.59-23.41,8-9,4.18-12.88-1.56-5-7.15-5-8.64Z"/><path class="cls-2" d="M899.9,435.48l-.7-16.2,12.1-6.89.55,5.08-5.27,13.61s-3.38,4.57-3.65,4.71A19.67,19.67,0,0,1,899.9,435.48Z"/><path class="cls-12" d="M899.9,435.48l.25,4.15a1.92,1.92,0,0,0,3.59.84l13-23.05a1.7,1.7,0,0,0-.64-2.31l-4.82-2.72C907.51,430.5,903,435,899.9,435.48Z"/><path class="cls-4" d="M796.8,179.87s-8.17,34.57,0,61.39c0,0-9.74,14.24-9.74,30.9s9.74,81.06,9.74,81.06,28-1.57,42.42-6.91V305.15l6.6,37.39,6.6-2.83s9.11-61.16-14.46-94.84c0,0,8.49-21.26,9.11-23.46,0,0-1.25-21.68,4.4-33.62,0,0-6.44-4.24-6-4.24s-5.65,9.74-20,9.26S802.77,179,802.77,179Z"/><path class="cls-2" d="M793.35,322.69,812.88,441s11.16,13.39,11.67,6.73c.12-1.55,0-12.73.14-14.77,1.4-17.09,3.07-50.79,1.92-62.63C825.36,357.47,821,335.8,821,335.8Z"/><path class="cls-2" d="M799.82,447.81l13.44-7.89,11.31,7.17-4.07,2.76-13.93,1.66s-5.4-.82-5.64-1A19.3,19.3,0,0,1,799.82,447.81Z"/><path class="cls-12" d="M799.82,447.81l-3.4,2.09a1.84,1.84,0,0,0,.9,3.42l25.44.68a1.63,1.63,0,0,0,1.66-1.58l.15-5.33C807.48,452,801.67,450.24,799.82,447.81Z"/><path d="M819.11,239.79c-26.4-9.11-16.34-60.8-16.34-60.8l-6,.88s-8.17,34.57,0,61.39c0,0-9.74,14.24-9.74,30.9s9.74,81.06,9.74,81.06,28-1.57,42.42-6.91C801.83,347.88,819.11,239.79,819.11,239.79Z"/><path class="cls-2" d="M546.28,452.4l12-10,12.31,5.25L567,451.07,553.54,455s-5.47.08-5.73-.05A18.56,18.56,0,0,1,546.28,452.4Z"/><path class="cls-12" d="M546.28,452.4l-3,2.61a1.84,1.84,0,0,0,1.44,3.23l25.21-3.45A1.62,1.62,0,0,0,571.3,453l-.72-5.27C554.52,455.33,548.5,454.49,546.28,452.4Z"/><path class="cls-2" d="M851.11,355.4a531,531,0,0,1,51.67,49.77L860.12,378Z"/><path class="cls-2" d="M481.89,280.15s-18.49,58.72-16,66.86c1.58,5.21,31,87.13,31.51,87s12.24-3.6,12.24-3.6-21.87-80.05-20.8-85.18,23.25-52.45,23.25-52.45Z"/><path class="cls-2" d="M486.68,439l8.16-14,13.9.73-2.27,4.58-11.78,8.61s-5.32,2-5.62,2A19.75,19.75,0,0,1,486.68,439Z"/><path class="cls-12" d="M486.68,439l-2,3.63a1.92,1.92,0,0,0,2.56,2.64l23.41-12.38a1.68,1.68,0,0,0,.7-2.28l-2.59-4.9C495.78,438.88,489.6,440.22,486.68,439Z"/><path class="cls-2" d="M488.82,345.21A531.26,531.26,0,0,1,505.47,415L484.2,369.12Z"/><path class="cls-4" d="M829.48,156.94a3.87,3.87,0,0,1-1,.77,4,4,0,0,1-5-1.65A7.52,7.52,0,0,0,829.48,156.94Z"/><path class="cls-4" d="M818.16,155.26a4.22,4.22,0,0,1-1,.75,4,4,0,0,1-5-1.76A7.58,7.58,0,0,0,818.16,155.26Z"/><path class="cls-12" d="M342.32,160.38s-3.92-16.46,5.18-22.7,18.78-5.64,25.39-2,10.63,16.53,7.72,23.92l-21.92-6.87Z"/><path class="cls-2" d="M368.6,190.74l-2.43-15.29L354,174.72l-.71,17.42S364.05,193.63,368.6,190.74Z"/><path class="cls-7" d="M367.32,182.72l-1.15-7.27L354,174.72l-.24,6C356.29,183,360.72,185.34,367.32,182.72Z"/><path class="cls-7" d="M376.16,161.53c-.89,2.08-.27,4.35,1.39,5.06s3.74-.39,4.63-2.46.27-4.34-1.39-5.06S377.06,159.46,376.16,161.53Z"/><path class="cls-2" d="M376.69,170.93a32.06,32.06,0,0,0,1.91-8c.06-.53.16-1.06.26-1.59a17.36,17.36,0,0,0,0-6.74,17.5,17.5,0,0,0-34.66,3,3.79,3.79,0,0,0-3.4-.34c-2.1.89-2.9,3.73-1.79,6.35s3.7,4,5.8,3.13a3,3,0,0,0,.79-.48c.7,8.58,7.59,15.34,16,15.36A16.11,16.11,0,0,0,376.69,170.93Z"/><path class="cls-7" d="M365.62,157.87c.07,1,.12,2,.22,2.93a6.4,6.4,0,0,0,.65,2.58l.08.1a.77.77,0,0,0,.1.12c.09.13.2.23.28.37a2,2,0,0,1,.3.91,2.07,2.07,0,0,1-.69,1.65,3.4,3.4,0,0,1-3,.72A4.19,4.19,0,0,0,366,166a1.34,1.34,0,0,0,.32-1,1.11,1.11,0,0,0-.19-.47c0-.07-.12-.14-.17-.21l-.13-.16-.15-.19a4,4,0,0,1-.55-1.58,8.86,8.86,0,0,1-.06-1.54A10.56,10.56,0,0,1,365.62,157.87Z"/><path class="cls-12" d="M361.64,155.92a15.36,15.36,0,0,0-2.25-.44,8,8,0,0,0-2.13,0,7.44,7.44,0,0,0-2,.63c-.35.13-.65.35-1,.51s-.64.42-1,.61a6.27,6.27,0,0,1,.64-1.05,4.83,4.83,0,0,1,.88-.87,4.9,4.9,0,0,1,2.33-1,5.11,5.11,0,0,1,2.52.22A4.6,4.6,0,0,1,361.64,155.92Z"/><path class="cls-12" d="M368.39,156.38a4.81,4.81,0,0,1,2.18-1.13,5.16,5.16,0,0,1,2.53.05,4.89,4.89,0,0,1,2.2,1.26,5.11,5.11,0,0,1,.79,1,7,7,0,0,1,.52,1.11c-.36-.22-.64-.49-.95-.71s-.61-.45-.94-.61a7.33,7.33,0,0,0-1.93-.85,8.14,8.14,0,0,0-2.11-.27A15.59,15.59,0,0,0,368.39,156.38Z"/><path class="cls-12" d="M344.45,157.85a2.72,2.72,0,0,0-1.78-.8l.43-5.33,1.65-3.22s6.45-8.67,6.67-8.88,5.17-3,5.48-3.18,7.24.87,7.24.87,12.19-2.55,10.16,3.84-10.92,9.78-11.38,9.49c1.44-1.43,1.57-5.49,1.57-5.49C358.21,152,346.31,157.09,344.45,157.85Z"/><path class="cls-10" d="M369.46,169.45a4.55,4.55,0,0,1-8.77.23Z"/><path class="cls-12" d="M326.26,289s2.82,64.57,3.77,67.4-36.3,64.57-33.94,66.92,6.6,9,21.21,6.13c0,0,47.13-50.9,48.08-81.07v88.14s13.19,5.66,19.79,0c0,0,19.95-91.91,6.91-146.11l-25.76-11.31Z"/><path class="cls-13" d="M363.8,294.46c.59,4.47,1,9,1.4,13.43.19,2.24.33,4.49.48,6.74s.24,4.49.34,6.74.14,4.5.19,6.75.06,4.5,0,6.75a118.83,118.83,0,0,1-.84,13.48c0-1.12,0-2.25.08-3.37s0-2.25,0-3.37,0-2.24,0-3.37l0-1.68,0-1.68q-.13-6.74-.43-13.47c-.17-4.49-.38-9-.58-13.47l-.31-6.73Z"/><path class="cls-6" d="M319.81,213.4s-.94,66.61,3.77,80.44c0,0,47.77,6.59,68.5-3.46,0,0-9.74-33.62-6-48.39s6-27,6-27,26.71-38.28,28.6-59.36S422.56,110,422.56,110a52,52,0,0,0-15.08,0s-2.51,36.49-4.4,41.5-20.74,34.22-20.74,34.22l-14-.15s-6.28,7.54-14.92.94c0,0-14.3,2.2-15.24,2.2s-21.53-10.06-23.73-14.14-10.05-28-7.85-61.74c0,0-7.07-2.36-12.42-1.1,0,0-7.69,51.37-3.29,66.24S319.81,213.4,319.81,213.4Z"/><path class="cls-14" d="M342.26,188.2c-2.11.31-3.76.53-4.06.53-.95,0-21.53-10.06-23.73-14.14s-10.05-28-7.85-61.74c0,0-7.07-2.36-12.42-1.1,0,0-7.69,51.37-3.29,66.24s28.9,35.41,28.9,35.41-.94,66.61,3.77,80.44c0,0,47.77,6.59,68.5-3.46,0,0-.38-1.32-1-3.53C356.75,264.09,345.55,221,342.26,188.2Z"/><path class="cls-15" d="M498.92,187.84s-12.15-6.08-9.44-23.26c.86-5.42,6-7.29,5.09-14.51s-3.22-16.06,4.22-24.23,14.31-9.13,23.62-9.27c9.7-.14,26.62,6.5,30.69,18.28s19.12,1.66,35,12.78,11.11,28.83,7,38c-12.7,28.12-35.93,32.67-64,25.72s-5-11.93-5.28-12.37S498.92,187.84,498.92,187.84Z"/><path class="cls-2" d="M516.7,168.23l-.84-10,11.24.86,3.15,12.33c.39,1.46-4.27,2.18-5.64,2.82-1.59.73-3.08-3.31-5.55-3.63A2.71,2.71,0,0,1,516.7,168.23Z"/><g class="cls-16"><path class="cls-17" d="M516.44,165.19l-.58-6.92,11.56,2.07.66,2.53C525.74,164.12,521.05,165.9,516.44,165.19Z"/></g><path class="cls-2" d="M503.44,151a29.31,29.31,0,0,1-.13-7.63c.05-.49.07-1,.08-1.49a16.23,16.23,0,1,1,32.14,3.57,3.5,3.5,0,0,1,3.14.38c1.72,1.22,1.88,3.95.35,6.09s-4.16,2.9-5.88,1.68a3.16,3.16,0,0,1-.62-.59A15.22,15.22,0,0,1,515,163.7,14.94,14.94,0,0,1,503.44,151Z"/><path class="cls-4" d="M519.19,145.27a1.42,1.42,0,1,0,1.69-1.08A1.43,1.43,0,0,0,519.19,145.27Z"/><path class="cls-4" d="M507.14,143.47a1.42,1.42,0,1,0,1.68-1.08A1.41,1.41,0,0,0,507.14,143.47Z"/><path class="cls-15" d="M518.12,142.17a13.28,13.28,0,0,1,2.12-.22,6.78,6.78,0,0,1,2,.23A6.7,6.7,0,0,1,524,143l.22.13.21.15.43.3c.29.21.55.46.87.67a6.32,6.32,0,0,0-.5-1,6.16,6.16,0,0,0-.74-.88,4.62,4.62,0,0,0-2-1.13,4.72,4.72,0,0,0-2.33,0A4.41,4.41,0,0,0,518.12,142.17Z"/><path class="cls-15" d="M512.49,141.24a4.51,4.51,0,0,0-1.58-1.61,4.93,4.93,0,0,0-2.22-.71,4.75,4.75,0,0,0-2.3.42,5.66,5.66,0,0,0-1,.59,6,6,0,0,0-.8.8c.37-.1.7-.25,1-.35l.5-.15a2.33,2.33,0,0,1,.25-.07l.25,0a6.61,6.61,0,0,1,2-.17,7,7,0,0,1,1.94.41A13.74,13.74,0,0,1,512.49,141.24Z"/><path class="cls-7" d="M514.7,141.47a11.16,11.16,0,0,1-.17,3.05,8.23,8.23,0,0,1-.43,1.5,3.86,3.86,0,0,1-.91,1.42l-.19.15-.16.13a1.37,1.37,0,0,0-.23.17,1.12,1.12,0,0,0-.3.43,1.34,1.34,0,0,0,.07,1.1,4.26,4.26,0,0,0,2.11,1.8,3.44,3.44,0,0,1-2.76-1.42,2,2,0,0,1-.29-1.78,1.38,1.38,0,0,1,.21-.44,1.57,1.57,0,0,1,.3-.37,2,2,0,0,1,.36-.3l.13-.1.1-.08a3.64,3.64,0,0,0,.72-1.08,10.55,10.55,0,0,0,.54-1.33C514.12,143.4,514.39,142.44,514.7,141.47Z"/><path class="cls-15" d="M512.82,127.57s7.49,15.57,22.71,17.88l2.55-10.91s-5-5.82-5.7-6.57-10.86-4.27-10.86-4.27L513,124.92Z"/><path class="cls-4" d="M355.07,160a4.81,4.81,0,0,0,1,1,4.59,4.59,0,0,0,5.89-1.13A8.63,8.63,0,0,1,355.07,160Z"/><path class="cls-2" d="M537.25,180.74s18,61.3,35.85,83.3l-6.94,4.24s-33.72-44.62-39-64.1S537.25,180.74,537.25,180.74Z"/><path class="cls-4" d="M368.16,159.77a4.19,4.19,0,0,0,6.92-.26A8.61,8.61,0,0,1,368.16,159.77Z"/><path class="cls-2" d="M192.66,179.23l-1.09-15.45-12-1.79-2.22,17.3S187.87,181.7,192.66,179.23Z"/><path class="cls-7" d="M192.08,171.12l-.51-7.34-12-1.79-.77,6C181.06,170.48,185.27,173.15,192.08,171.12Z"/><path class="cls-7" d="M204.77,150c-1.13,2.09-.68,4.51,1,5.41s3.93-.06,5.06-2.15.68-4.51-1-5.41S205.89,147.86,204.77,150Z"/><path class="cls-2" d="M204.46,159.82a33.74,33.74,0,0,0,2.73-8.2c.12-.55.26-1.1.42-1.64a18.36,18.36,0,1,0-35.89-7,4,4,0,0,0-3.52-.66c-2.27.73-3.36,3.63-2.45,6.47s3.5,4.54,5.77,3.8a3.43,3.43,0,0,0,.88-.43c-.05,9,6.52,16.72,15.32,17.52A16.9,16.9,0,0,0,204.46,159.82Z"/><path class="cls-7" d="M194.08,145.15c0,1.06-.05,2.08,0,3.09a7.06,7.06,0,0,0,.45,2.75l.07.11a1.37,1.37,0,0,0,.1.14,4.1,4.1,0,0,1,.26.41,2.14,2.14,0,0,1,.23,1,2.17,2.17,0,0,1-.88,1.66,3.53,3.53,0,0,1-3.18.47,4.3,4.3,0,0,0,2.63-1.09,1.41,1.41,0,0,0,.43-1,1.09,1.09,0,0,0-.16-.51,1.67,1.67,0,0,0-.16-.24l-.12-.18-.14-.21a4.13,4.13,0,0,1-.42-1.7,7.83,7.83,0,0,1,.08-1.61A10.76,10.76,0,0,1,194.08,145.15Z"/><path class="cls-18" d="M190.11,142.75a18,18,0,0,0-2.32-.67,8,8,0,0,0-2.22-.14,7.54,7.54,0,0,0-2.16.47c-.38.1-.71.3-1.09.44s-.71.38-1.12.54a6.85,6.85,0,0,1,.75-1,6.29,6.29,0,0,1,1-.83,5.22,5.22,0,0,1,2.52-.84,5.41,5.41,0,0,1,2.62.46A5,5,0,0,1,190.11,142.75Z"/><path class="cls-18" d="M197.12,143.85a4.94,4.94,0,0,1,2.38-1,5.43,5.43,0,0,1,2.64.29,5.27,5.27,0,0,1,2.19,1.51,5.86,5.86,0,0,1,.73,1.08,6.75,6.75,0,0,1,.44,1.21c-.35-.27-.62-.57-.93-.83s-.59-.53-.92-.73a7.83,7.83,0,0,0-1.94-1.06,8.23,8.23,0,0,0-2.18-.48A17.55,17.55,0,0,0,197.12,143.85Z"/><path class="cls-12" d="M532.23,167.25s-46.51-1-38,38.29c0,0,3.77,13.51,3.14,17.91s-6.6,16.28-6,27.46S456.81,279.7,454,290.69c0,0,12.25,7.23,17.28,13.52s16.65,33,53.1,33.93S575.59,341,575.59,341s-1.57-13.2-18.23-32.68-12.88-73.53-27.65-86.72C529.71,221.57,548.25,170.13,532.23,167.25Z"/><path class="cls-19" d="M557.36,308.29c-16.65-19.48-12.88-73.53-27.65-86.72,0,0,16.29-45.2,5.13-53.23,0,0-15.18,43.17-22.1,49.46,0,0,12.76,25.76,13.45,38.33s-9.36,29.7-4,39.83,10,46.06-31.12,31.4c7.83,5.78,18.53,10.4,33.32,10.78,36.45.94,51.22,2.83,51.22,2.83S574,327.77,557.36,308.29Z"/><path class="cls-2" d="M463.33,150.59s14.85,36.41,17.36,37.25,23.47-7,31.85-12.2,18.22-9.41,21.36-5.1-5.86,26.51-46.5,32.17c0,0-15.5,4.61-22.21-15.08a211.88,211.88,0,0,1-8.92-37.8Z"/><path class="cls-8" d="M510.5,225.26a77.56,77.56,0,0,1-13.12-1,1.25,1.25,0,0,1-1-1.5h0a1.23,1.23,0,0,1,1.41-.95c3.72.64,16.18,2.23,33.19-1.05a1.24,1.24,0,0,1,1.45,1h0a1.23,1.23,0,0,1-1,1.46A110.39,110.39,0,0,1,510.5,225.26Zm-14.11-2.46.27-1.2h0Z"/><path class="cls-10" d="M520.75,153.89a5.08,5.08,0,0,1-9.81,0Z"/><path class="cls-2" d="M169.3,168.34s18.07,7.66,28.91,11c0,0-3.3,13.83-4.4,13.2s-23.72-6.76-23.72-6.76Z"/><path class="cls-20" d="M136.59,283.6s4,47.47,20.93,79.21l-17.28,72.73S146,439,160.64,439c0,0,25.16-69.76,26.57-76.2s-6.56-40-6.56-40L222,440s11.49,1.12,20.35-3.7L203.71,287,179.2,270.58Z"/><path class="cls-2" d="M120.7,188.31c-14.62,13.11-45.78,57.8-45.78,57.8h0l-.93.51c-9.22,5.45-8.37,4.74-8.23,5.11s4.57-.78,4.58-.32-5.28,3.88-4.77,4.1,5.77-2.34,5.87-2-5,3.58-4.57,4.24,6-3.06,6.15-2.38-5.59,4.36-5.06,4.89,7-3.5,9-4.76a.39.39,0,0,1,.6.35c-.14,4.81.14,5.19.67,5.09.38-.08,1.85-4.2,3.44-8l1.24-3.15h0c8.12-8.8,33.06-35.21,49.6-49.54Z"/><path class="cls-21" d="M144.48,200.2s-12.26,50.27-11,82.32c0,0,34.25,13.2,73.21,7.55,0,0-6.28-44.94-6.59-47.77S208,216.54,208,216.54s6.6,9.11,14.14,14.77c0,0,9.11-4.08,14.77-17.12,0,0-19.17-22.79-25.14-27.82a40.08,40.08,0,0,0-13.51-7.07s-21.05.86-28.91-11c0,0-20.74,1-31.1,6.38s-24.83,17.8-24.83,17.8,1.57,11.45,9.74,18.36Z"/><path class="cls-19" d="M162.34,168.93c-7,.76-17.62,2.41-24.14,5.79-10.37,5.37-24.83,17.8-24.83,17.8s1.57,11.45,9.74,18.36l21.37-10.68s-12.26,50.27-11,82.32c0,0,34.25,13.2,73.21,7.55,0,0-.61-4.37-1.45-10.46C137.55,265.46,153.57,195.54,162.34,168.93Z"/><path class="cls-4" d="M187.28,146.75a1.64,1.64,0,1,1-1.83-1.42A1.64,1.64,0,0,1,187.28,146.75Z"/><path class="cls-4" d="M201.28,148.79a1.64,1.64,0,1,1-3.26.41,1.63,1.63,0,0,1,1.42-1.83A1.66,1.66,0,0,1,201.28,148.79Z"/><path class="cls-18" d="M211.55,138.76s3.14.22,4.3-.93c0,0-4,.79-5-4a17,17,0,0,0-10.39-12.1c-5.8-2.2-21.47-3.42-26,0s-6.48,7.11-6.89,12.56-2.31,7.47-3.88,7.29a4.91,4.91,0,0,0,4,.23,3.62,3.62,0,0,1-2.63,2.75s5,.26,6.48-2.66c0,0-.85,5.88-2.3,7,0,0,4.16-1.09,6.52-10.62,0,0,16.93-3.89,20.73-11.1,0,0-3.3,7.3-6,8.12a11.72,11.72,0,0,0,11.27-4.88s4.41,4.63,5.35,7.46,1,9.25.92,9.72l3.17-7a4.24,4.24,0,0,0,4.12,1S212,140.24,211.55,138.76Z"/><path class="cls-7" d="M185,154.94a9,9,0,0,0,1.26,1.64c2.13,2.1,4.57,1.64,5.64,1.64a4.84,4.84,0,0,1-6-1.32A4.68,4.68,0,0,1,185,154.94Z"/><path class="cls-6" d="M90.07,170.43c-2.43,1.21-4.37-.49-6.31-2a2.62,2.62,0,0,0-2.92.25,3.16,3.16,0,0,1,.49-2.67c2.18-1.95,4.37.48,6.31,1.69a3,3,0,0,0,3.16-.24l-.73,2.92Z"/><path class="cls-6" d="M173.1,92.25c-2.43,1-4.62-.24-6.56-1.94a2.62,2.62,0,0,0-2.91.24c.48-1,0-2.18.48-3.15a6.51,6.51,0,0,1,5.59,1.21,3,3,0,0,0,3.88.49c0,1-.73,1.94-.48,3.15Z"/><path class="cls-21" d="M258.55,52.2c-3.16.72-4.61-2.43-6.8-3.89a6.65,6.65,0,0,0-2.18,0,13.14,13.14,0,0,0,1.21-2.67c2.67-.48,4.37,1.21,5.83,3.16a2.88,2.88,0,0,0,3.15.48c-.24,1-1,1.94-1.21,2.92Z"/><path class="cls-21" d="M51.47,147.12c-2.92.73-4.37-2.19-6.56-3.89-.48-.24-1.45,0-2.18,0,.73-.72.48-2.18,1.21-2.42,2.19-1,4.13,1,5.59,2.91a2.89,2.89,0,0,0,3.15.49c-.24,1-1,1.94-1.21,2.91Z"/><path class="cls-8" d="M158,59.24c2,1.7,1.22,4.37,1.22,6.55a2,2,0,0,0,1.21,2.67c-1,.24-2.18.49-3.15.73-1.46-1.94-1.22-4.37-.73-6.56A3.36,3.36,0,0,0,155.13,60l2.91-.72Z"/><path class="cls-8" d="M63.36,189.12c2.43,1.94.73,4.85,1,7.52a5,5,0,0,0,1.46,1.7c-1,.25-2.18.49-3.16.73-.72-1.7-1.94-3.15-1.21-5.34a3.1,3.1,0,0,0-1-3.88c.73-.73,1.94-.25,2.91-.73Z"/><path class="cls-12" d="M17.24,187.42c1-2.19,3.4-2.91,5.82-2.91a3.31,3.31,0,0,0,2.19-2.19c.73.73,1,1.94,1.7,2.67-1.46,2.43-4.37,2.43-6.8,3.16a2.14,2.14,0,0,0-1.46,1.7,8.17,8.17,0,0,0-1.45-2.43Z"/><path class="cls-12" d="M314.63,14.81c1-2.19,3.64-2.91,5.83-2.91a3.28,3.28,0,0,0,2.18-2.19c.73.73,1,1.94,1.7,2.67-1.45,2.43-4.37,2.43-6.8,3.16-.72.24-1,1-1.21,1.7a14.93,14.93,0,0,1-1.7-2.43Z"/><path class="cls-12" d="M121.14,100A5.32,5.32,0,0,1,126,97.35a3.11,3.11,0,0,0,3.4-2.43c.48,1,1.21,1.7,1.7,2.67-1.22,2.19-3.65,2.67-6.07,3.16a2.31,2.31,0,0,0-2.19,1.94c-.73-.73-1-1.94-1.7-2.67Z"/><path class="cls-12" d="M196.89,55.59c1.21-2.18,3.4-2.67,5.82-2.91,1.22-.24,1.7-1.21,2.43-2.18a9.53,9.53,0,0,0,1.46,2.67c-1.22,2.18-3.4,2.67-5.83,2.91a3.24,3.24,0,0,0-2.18,2.18c-.73-.72-1-1.94-1.7-2.67Z"/><path class="cls-12" d="M304.92,61.18a6.64,6.64,0,0,1,5.83-2.92,3.24,3.24,0,0,0,2.18-2.18c.73.73,1,1.94,1.7,2.67-1.46,2.43-4.37,2.19-6.8,3.16-.72.24-1,1-1.45,1.7a8.07,8.07,0,0,0-1.46-2.43Z"/><path class="cls-6" d="M103.66,6.8c1.7,1.94,1.46,4.61.49,6.8-.24,1,.48,1.94,1.21,2.67a12.9,12.9,0,0,0-2.91.72,4.92,4.92,0,0,1-1.21-4.37c.48-1.7,1.21-3.88-.49-5.09l2.91-.73Z"/><path class="cls-21" d="M81.57,77.69c1.46,1.94.24,4.61-.24,6.55a2.11,2.11,0,0,0,.73,2.91,11.54,11.54,0,0,1-2.92.25c-1.45-1.94-.73-4.37.25-6.56a2.91,2.91,0,0,0-1-2.91c1,.24,2.19-.49,3.16-.24Z"/><path class="cls-8" d="M345.71,36.42c1.45-2.43,4.12-2.92,6.55-3.89.49,0,1-1,1.21-1.7.49,1,1.46,1.46,1.95,2.43-1,2.91-4.13,2.67-6.56,3.88a3.17,3.17,0,0,0-1.21,1.7c-.73-.72-1.22-1.7-1.94-2.42Z"/><path class="cls-12" d="M51,68.22c-2.43,0-3.88-1.94-5.34-4.13a2.52,2.52,0,0,0-2.67-1c.49-1,1.21-1.7,1.7-2.67a4.28,4.28,0,0,1,3.64,1.94c1,1.7,2.19,3.64,4.37,3.16-.73.73-1,1.94-1.7,2.67Z"/><path class="cls-12" d="M120.17,56.81c-2.43,0-3.88-2.19-5.34-4.13a3,3,0,0,0-2.67-1c.49-1,.73-2.18,1.46-2.43a4.42,4.42,0,0,1,2.91.73c1.21,1.21,1.7,2.91,3.16,3.89.72.48,1.45.24,2.18.24-.73.73-1,1.94-1.7,2.67Z"/><path class="cls-12" d="M71.13,31.8C68.22,31.56,67,28.89,65.31,27c-.49-.49-1.46-.25-2.19-.25,0-1.21,1.21-1.69,1.7-2.67A4.27,4.27,0,0,1,68.46,26c1.22,1.45,2.19,3.4,4.37,3.15a10.14,10.14,0,0,0-1.7,2.67Z"/><path class="cls-6" d="M182.08,25.73a7.88,7.88,0,0,1,6.07-2.67,3.24,3.24,0,0,0,2.18-2.18c.73.73,1,1.94,1.7,2.67a5.31,5.31,0,0,1-4.85,2.67c-1.46,0-2.92.48-3.4,2.18-.73-.72-1-1.94-1.7-2.67Z"/><path class="cls-21" d="M245,11.17a6.61,6.61,0,0,1,6.31-1.7c1.21,0,1.94-1,2.67-1.7,0,1,1.21,1.94.73,2.67-1,2.67-4.62,1.46-7,2.18-.73.25-1,.73-1.46,1.46A14.38,14.38,0,0,1,245,11.17Z"/><path class="cls-8" d="M371.68,12.87c-2.43,0-4.13-1.46-5.58-3.64a2.85,2.85,0,0,0-2.91-.73c.24-1,1.21-1.7,1.45-2.67C367.55,5.34,369,8.25,371,10c.73.49,1.46.25,2.19.25a9.53,9.53,0,0,1-1.46,2.67Z"/><path class="cls-8" d="M248.6,115.32c-2.43,0-4.13-1.7-5.59-3.65-.72-.72-1.45-1.45-2.91-.72a10.65,10.65,0,0,1,1.46-2.92,6.91,6.91,0,0,1,5.34,3.64c.73,1,1.94,1,3.15,1-.24,1-1.21,1.7-1.45,2.67Z"/><path class="cls-12" d="M285,26.22c1.46,2.18.49,4.61-.73,6.55a2.68,2.68,0,0,0,.73,2.92H282.1c-2.19-2.43.49-4.86.73-7.53.24-.73-.49-1.21-.73-1.94Z"/><path class="cls-12" d="M216.31,34.23c1,2.19.48,4.37-.73,6.56-.73,1-.24,2.18.73,3.15h-3.16c-1.21-1.94-.73-4.61.73-6.55.73-1,.24-2.19-.73-3.16Z"/><path class="cls-12" d="M251.75,143.72c1.22,2.19.49,4.37-.73,6.56a2.38,2.38,0,0,0,.73,2.91,7,7,0,0,1-3.15-.24c-1.22-.73-1-2.67-.49-4.13.49-1,1.46-1.94,1.46-3.16a3,3,0,0,0-1-1.94Z"/><path class="cls-6" d="M93.71,134c-2.43,0-4.13-1.94-5.1-4.13-.48-1.21-1.94-1-2.91-1.21a14.93,14.93,0,0,0,1.7-2.43c2.43,0,4.12,1.94,5.1,4.13.48,1.21,1.94,1,2.91,1.21a14.93,14.93,0,0,0-1.7,2.43Z"/><path class="cls-6" d="M8,94C5.1,93.71,3.88,91,2.18,89.1A2.16,2.16,0,0,0,0,88.61c.49-1,1.21-1.7,1.7-2.67,1.7.49,3.64,1.21,4.61,3.4a3.09,3.09,0,0,0,3.4,1.94C9,92,8.74,93.22,8,94Z"/><path class="cls-6" d="M88.85,57.05c-2.91-.24-4.12-2.91-5.82-4.85a2.19,2.19,0,0,0-2.19-.49c.49-1,1.22-1.7,1.7-2.67,1.7.49,3.64,1.21,4.61,3.4a3.09,3.09,0,0,0,3.4,1.94c-.72.73-1,1.94-1.7,2.67Z"/><path class="cls-21" d="M131.82,123.08c-2.67-.72-3.15-3.88-4.61-6.06a3.34,3.34,0,0,0-2.18-.73l2.18-2.19c2.43.25,3.64,2.67,4.13,4.86.48,1.21,1.7,1.45,2.67,1.7a10.34,10.34,0,0,1-2.19,2.42Z"/><path class="cls-21" d="M276,80.6c-2.91-.73-3.4-3.64-4.86-6.07a2.76,2.76,0,0,0-1.94-.73c.49-1,1.22-1.94,2.19-1.94,2.91,0,3.15,3.4,4.61,5.58a3.38,3.38,0,0,0,2.19.73A10.59,10.59,0,0,0,276,80.6Z"/><path class="cls-21" d="M49.77,106.82c-2.19-.73-3.4-2.91-4.37-5.1A2.46,2.46,0,0,0,43,100l2.19-2.18c2.18.72,3.39,2.91,4.37,5.09a2.46,2.46,0,0,0,2.42,1.7l-2.18,2.19Z"/><path class="cls-8" d="M205.63,102c1.94,2.67-.25,5.1-.73,7.77a3,3,0,0,0,1,1.94c-1,0-2.19.25-2.91-.24-1-.73-1.22-2.67-.73-4.13.48-1,1.45-1.94,1.45-3.15a5.12,5.12,0,0,0-1.21-1.94,13.49,13.49,0,0,1,3.16-.25Z"/><path class="cls-8" d="M38.6,157.8c1.46,1.94.24,4.61-.73,6.56a2.93,2.93,0,0,0,1,2.91H35.69c-1.22-2.19-.49-4.37.73-6.56a2.91,2.91,0,0,0-1-2.91Z"/><path class="cls-12" d="M4.86,134.5c1.94-1.95,4.85-1.22,7.52-1.22.73,0,1.22-.73,1.7-1.46a13.52,13.52,0,0,1,1,2.92c-1.7,1.7-4.13,1.7-6.55,1.45a2.6,2.6,0,0,0-2.67,1.22,13.26,13.26,0,0,1-1-2.91Z"/><path class="cls-12" d="M152.7,34c1.7-1.94,4.13-1.46,6.56-1a3.36,3.36,0,0,0,2.67-1.46,13.81,13.81,0,0,1,1,2.91c-1.94,2.19-4.86,1-7.53,1.22-.73,0-1.21.73-1.7,1.45a16.51,16.51,0,0,1-1-3.15Z"/><path class="cls-12" d="M21.85,25.25c1.7-1.7,4.13-1.7,6.55-1.46a2.59,2.59,0,0,0,2.67-1.21,13.86,13.86,0,0,1,1,2.91c-1.95,1.94-4.86,1.21-7.53,1.21-.73,0-1.21.73-1.7,1.46a13.26,13.26,0,0,1-1-2.91Z"/><path class="cls-12" d="M269.47,123.87c.25-2.57,2.7-3.73,4.76-4.61a3.35,3.35,0,0,0,1.32-2.74l2.29,1.94c-.31,2.91-3.38,3.62-5.21,5.23-.6.43-.57,1.3-.54,2.18a16.15,16.15,0,0,1-2.62-2Z"/><path class="cls-6" d="M595.27,14.32c-2.42,1.22-4.37-.48-6.31-1.94a2.62,2.62,0,0,0-2.91.24,3.21,3.21,0,0,1,.48-2.67c2.19-1.94,4.37.49,6.32,1.7a3,3,0,0,0,3.15-.24l-.73,2.91Z"/><path class="cls-6" d="M655.24,86.43c-2.19,1.21-4.61-.25-6.31-2a3,3,0,0,0-3.16.25c.24-1,.24-2.19.73-2.67,2.18-2,4.37.48,6.31,1.7a2.58,2.58,0,0,0,2.91-.25,6.13,6.13,0,0,1-.48,2.92Z"/><path class="cls-21" d="M482.87,112.16c-2.43,0-4.13-1.46-5.58-3.4a2.89,2.89,0,0,0-3.16-.48,15.37,15.37,0,0,0,1.22-2.92,7.54,7.54,0,0,1,3.15.73c1.46.73,1.94,2.43,3.4,3.16a3.39,3.39,0,0,0,2.18,0c-.48,1-.72,1.94-1.21,2.91Z"/><path class="cls-21" d="M392.32,132.8c-2.92.72-4.37-2.19-6.56-3.89-.48-.24-1.45,0-2.18,0,.73-.73.48-2.18,1.21-2.43,2.19-1,4.13,1,5.59,2.92a2.87,2.87,0,0,0,3.15.48c-.24,1-1,1.94-1.21,2.92Z"/><path class="cls-8" d="M590.66,41.76c1.94,1.7,1.22,4.37,1.22,6.55A2,2,0,0,0,593.09,51c-1,.24-2.19.49-3.16.73-1.45-1.94-1.21-4.37-.73-6.55a3.36,3.36,0,0,0-1.45-2.68l2.91-.72Z"/><path class="cls-8" d="M371.92,93.22c2.43,2,.73,4.86,1,7.53.24.73,1,1.21,1.45,1.7-1,.24-2.18.48-3.15.73-.73-1.7-1.95-3.16-1.22-5.34A3.11,3.11,0,0,0,369,94c.73-.73,1.94-.24,2.91-.73Z"/><path class="cls-12" d="M669.56,63.61c1-2.19,3.64-2.92,5.83-2.92a3.24,3.24,0,0,0,2.18-2.18c.73.73,1,1.94,1.7,2.67-1.45,2.43-4.37,2.43-6.79,3.15-.73.25-1,1-1.22,1.7a14.86,14.86,0,0,1-1.7-2.42Z"/><path class="cls-12" d="M481.66,81.81a5.31,5.31,0,0,1,4.85-2.67,3.1,3.1,0,0,0,3.4-2.42c.49,1,1.22,1.69,1.7,2.67-1.21,2.18-3.64,2.67-6.07,3.15a2.3,2.3,0,0,0-2.18,1.94c-.73-.72-1-1.94-1.7-2.67Z"/><path class="cls-12" d="M537.74,41.27c1.21-2.18,3.4-2.67,5.82-2.91,1.22-.24,1.7-1.22,2.43-2.19a9.4,9.4,0,0,0,1.46,2.67c-1.22,2.19-3.4,2.67-5.83,2.92a3.24,3.24,0,0,0-2.18,2.18c-.73-.73-1-1.94-1.7-2.67Z"/><path class="cls-12" d="M594.3,82.54c1.22-2.18,3.4-2.67,5.83-2.91a3.24,3.24,0,0,0,2.18-2.19c.73.73,1,2,1.7,2.67-1.21,2.19-3.4,2.67-5.82,2.92A3.28,3.28,0,0,0,596,85.21c-.73-.73-1-1.94-1.7-2.67Z"/><path class="cls-12" d="M645.77,46.85a6.63,6.63,0,0,1,5.83-2.91,3.24,3.24,0,0,0,2.18-2.18c.73.72,1,1.94,1.7,2.67-1.46,2.42-4.37,2.18-6.8,3.15-.72.25-1,1-1.45,1.7a8.19,8.19,0,0,0-1.46-2.43Z"/><path class="cls-6" d="M615.42,133.77a9.08,9.08,0,0,1,1.22,2.67c0,2.18-1.94,4.61.48,6.79a6.71,6.71,0,0,0-3.15.49,6.35,6.35,0,0,1-.49-6.55,3.28,3.28,0,0,0-1.21-2.92c1,0,1.94-.73,3.15-.48Z"/><path class="cls-6" d="M240.59,76.23c1.7,1.94,1.45,4.61.48,6.8-.24,1,.49,1.94,1.22,2.67a12.37,12.37,0,0,0-2.92.73,5,5,0,0,1-1.21-4.37c.48-1.7,1.21-3.89-.49-5.1l2.92-.73Z"/><path class="cls-21" d="M422.42,63.36c1.46,2,.24,4.62-.24,6.56a2.11,2.11,0,0,0,.73,2.91,12,12,0,0,1-2.92.24c-1.45-1.94-.72-4.37.25-6.55a2.93,2.93,0,0,0-1-2.91c1,.24,2.18-.49,3.15-.25Z"/><path class="cls-8" d="M506.42,107.55c1.46-2.43,4.13-2.92,6.55-3.89.49,0,1-1,1.22-1.7.48,1,1.46,1.46,1.94,2.43-1,2.91-4.13,2.67-6.55,3.89a3.05,3.05,0,0,0-1.22,1.7c-.73-.73-1.21-1.7-1.94-2.43Z"/><path class="cls-12" d="M474.86,14.08a4.64,4.64,0,0,1-2.91-1c-1.95-1.46-2.19-4.37-5.1-4.13a8.17,8.17,0,0,1,1.45-2.43c2.92-.24,4.13,2.92,6.07,4.62a2.19,2.19,0,0,0,2.19.48,14.93,14.93,0,0,0-1.7,2.43Z"/><path class="cls-12" d="M353.72,66.28c-2.43,0-3.89-2-5.34-4.13a2.52,2.52,0,0,0-2.67-1c.48-1,1.21-1.7,1.69-2.67a4.3,4.3,0,0,1,3.65,1.94c1,1.7,2.18,3.64,4.37,3.16-.73.72-1,1.94-1.7,2.67Z"/><path class="cls-12" d="M461,42.48c-2.43,0-3.88-2.18-5.34-4.12a3,3,0,0,0-2.67-1c.49-1,.73-2.19,1.46-2.43a4.36,4.36,0,0,1,2.91.73c1.21,1.21,1.7,2.91,3.16,3.88.72.49,1.45.24,2.18.24-.73.73-1,1.95-1.7,2.67Z"/><path class="cls-12" d="M412,17.48c-2.91-.24-4.13-2.91-5.82-4.86-.49-.48-1.46-.24-2.19-.24,0-1.21,1.21-1.7,1.7-2.67a4.28,4.28,0,0,1,3.64,1.94c1.22,1.46,2.19,3.4,4.37,3.16a10.14,10.14,0,0,0-1.7,2.67Z"/><path class="cls-6" d="M522.93,11.41A7.88,7.88,0,0,1,529,8.74a3.24,3.24,0,0,0,2.18-2.19c.73.73,1,2,1.7,2.68A5.33,5.33,0,0,1,528,11.9c-1.46,0-2.92.48-3.4,2.18-.73-.73-1-1.94-1.7-2.67Z"/><path class="cls-6" d="M193.25,4.86c1.21-1.95,3.64-2.68,6.06-2.68A3.26,3.26,0,0,0,201.5,0c.73.73,1,1.94,1.7,2.67-1.46,2.67-4.61,2.43-7,3.16-.73.24-1,1-1.22,1.7-.72-.73-1-1.95-1.69-2.67Z"/><path class="cls-21" d="M436.74,159c1.7-1.94,3.89-1.94,6.32-1.69a3.09,3.09,0,0,0,2.67-1.7c0,1,1.21,1.94.73,2.91-1,2.18-3.65,1.94-6.07,1.7-1.22,0-1.7,1-2.43,1.7a14.85,14.85,0,0,1-1.22-2.92Z"/><path class="cls-21" d="M780.51,4.13a6.61,6.61,0,0,1,6.31-1.7c1.21,0,1.94-1,2.67-1.7,0,1,1.21,1.94.73,2.67-1,2.67-4.61,1.46-7,2.18-.73.25-1,.73-1.46,1.46a15,15,0,0,1-1.21-2.91Z"/><path class="cls-8" d="M589.45,101c-2.43,0-4.13-1.7-5.59-3.64-.72-.73-1.45-1.46-2.91-.73a10.73,10.73,0,0,1,1.46-2.91,6.89,6.89,0,0,1,5.34,3.64c.73,1,1.94,1,3.15,1-.24,1-1.21,1.7-1.45,2.67Z"/><path class="cls-12" d="M625.86,11.9c1.46,2.18.49,4.61-.73,6.55a2.66,2.66,0,0,0,.73,2.91H623c-2.19-2.42.49-4.85.73-7.52.24-.73-.49-1.22-.73-1.94Z"/><path class="cls-12" d="M557.16,19.91c1,2.18.48,4.37-.73,6.55-.73,1-.24,2.19.73,3.16H554c-1.21-1.94-.73-4.61.73-6.56.73-1,.24-2.18-.73-3.15Z"/><path class="cls-12" d="M672,9.47a7.57,7.57,0,0,1-.73,6.8,2.38,2.38,0,0,0,.73,2.91h-3.16c-1.45-2.19-.48-4.61.73-6.56a2.71,2.71,0,0,0-.73-3.15c1-.24,1.95.48,3.16,0Z"/><path class="cls-6" d="M456.17,71.13c-2.43,0-4.13-1.94-5.1-4.13-.49-1.21-1.94-1-2.92-1.21a14.33,14.33,0,0,0,1.7-2.43c2.43,0,4.13,2,5.1,4.13.49,1.21,1.94,1,2.92,1.21a14.33,14.33,0,0,0-1.7,2.43Z"/><path class="cls-6" d="M655,129.88c-3.16.25-3.89-3.15-5.83-4.85-.49-.49-1.46-.25-2.19-.49.25-1,1.22-1.46,1.7-2.43,2,.25,3.65,1,4.37,3.16a3.13,3.13,0,0,0,3.64,1.94c-.48,1-1.21,1.7-1.69,2.67Z"/><path class="cls-6" d="M514.43,60.94c-2.91-.25-4.13-2.92-5.83-4.86a2.16,2.16,0,0,0-2.18-.49c.49-1,1.21-1.69,1.7-2.67,1.7.49,3.64,1.22,4.61,3.4a3.07,3.07,0,0,0,3.4,1.94c-.73.73-1,2-1.7,2.68Z"/><path class="cls-6" d="M401.06,44.18c-2.92-.24-4.13-2.91-5.83-4.85a2.16,2.16,0,0,0-2.18-.49c.48-1,1.21-1.7,1.7-2.67,1.69.49,3.64,1.22,4.61,3.4a3.06,3.06,0,0,0,3.4,1.94c-.73.73-1,2-1.7,2.67Z"/><path class="cls-21" d="M616.88,66.28c-2.91-.73-3.4-3.65-4.85-6.07a2.76,2.76,0,0,0-1.95-.73c.49-1,1.22-1.94,2.19-1.94,2.91,0,3.15,3.4,4.61,5.58a3.38,3.38,0,0,0,2.19.73,10.59,10.59,0,0,0-2.19,2.43Z"/><path class="cls-21" d="M387.46,78.66c-2.18-.73-3.4-2.92-4.37-5.1a2.46,2.46,0,0,0-2.43-1.7l2.19-2.18c2.18.72,3.4,2.91,4.37,5.09a2.46,2.46,0,0,0,2.43,1.7l-2.19,2.19Z"/><path class="cls-8" d="M546.48,87.64c1.94,2.67-.25,5.1-.73,7.77a3,3,0,0,0,1,1.94c-1,0-2.19.24-2.91-.24-1-.73-1.22-2.67-.73-4.13.48-1,1.45-1.94,1.45-3.15a5.24,5.24,0,0,0-1.21-2,14,14,0,0,1,3.16-.24Z"/><path class="cls-12" d="M333.32,108.52c1.95-1.94,4.86-1.22,7.53-1.22.73,0,1.21-.72,1.7-1.45a13.26,13.26,0,0,1,1,2.91c-1.7,1.7-4.13,1.7-6.55,1.46a2.59,2.59,0,0,0-2.67,1.21,13.86,13.86,0,0,1-1-2.91Z"/><path class="cls-12" d="M436.74,108.52c1.7-1.94,4.37-1.46,6.56-1a3.36,3.36,0,0,0,2.67-1.46l.73,2.91c-1.94,2.19-4.86,1-7.28,1.22-.73,0-1.22.73-1.7,1.45a15.87,15.87,0,0,1-1-3.15Z"/><path class="cls-12" d="M493.55,19.66c1.7-1.94,4.13-1.45,6.56-1a3.35,3.35,0,0,0,2.67-1.45,13.81,13.81,0,0,1,1,2.91c-1.94,2.18-4.86,1-7.53,1.21-.72,0-1.21.73-1.7,1.46a16.39,16.39,0,0,1-1-3.16Z"/><path class="cls-12" d="M558.13,62.39c1.7-1.7,4.13-1.7,6.55-1.45a2.62,2.62,0,0,0,2.68-1.22,14.41,14.41,0,0,1,1,2.91c-2,1.95-4.86,1.22-7.53,1.22-.73,0-1.21.73-1.7,1.46a14.09,14.09,0,0,1-1-2.92Z"/><path class="cls-12" d="M606.93,108.52c1.7-1.94,4.37-1.46,6.55-1a3.36,3.36,0,0,0,2.67-1.46l.73,2.91c-1.94,2.19-4.85,1-7.28,1.22-.73,0-1.22.73-1.7,1.45a15.2,15.2,0,0,1-1-3.15Z"/><path class="cls-6" d="M764.73,163.38c-2.43,1.22-4.37-.48-6.31-1.94a2.62,2.62,0,0,0-2.92.25A3.19,3.19,0,0,1,756,159c2.18-1.94,4.37.49,6.31,1.7a3,3,0,0,0,3.16-.24l-.73,2.91Z"/><path class="cls-21" d="M918.89,32.05c-3.16.72-4.62-2.43-6.8-3.89a6.71,6.71,0,0,0-2.19,0,12.67,12.67,0,0,0,1.22-2.67c2.67-.48,4.37,1.21,5.83,3.16a2.87,2.87,0,0,0,3.15.48c-.24,1-1,1.94-1.21,2.92Z"/><path class="cls-21" d="M589.2,123.57c-2.91.73-4.37-2.18-6.55-3.88-.49-.25-1.46,0-2.19,0,.73-.73.49-2.19,1.22-2.43,2.18-1,4.13,1,5.58,2.91a2.91,2.91,0,0,0,3.16.49c-.24,1-1,1.94-1.22,2.91Z"/><path class="cls-8" d="M988.08,8.5c1.94,1.7,1.21,4.37,1.21,6.55a2,2,0,0,0,1.21,2.67c-1,.25-2.18.49-3.15.73-1.46-1.94-1.22-4.37-.73-6.55a3.34,3.34,0,0,0-1.46-2.67l2.92-.73Z"/><path class="cls-12" d="M781.48,79.87a5.31,5.31,0,0,1,4.85-2.67,3.1,3.1,0,0,0,3.4-2.43c.49,1,1.22,1.7,1.7,2.67-1.21,2.19-3.64,2.67-6.07,3.16a2.3,2.3,0,0,0-2.18,1.94c-.73-.73-1-1.94-1.7-2.67Z"/><path class="cls-12" d="M927.14,75.5c1.22-2.18,3.4-2.67,5.83-2.91a3.24,3.24,0,0,0,2.18-2.19c.73.73,1,1.95,1.7,2.67-1.21,2.19-3.4,2.67-5.82,2.92a3.26,3.26,0,0,0-2.19,2.18c-.73-.73-1-1.94-1.7-2.67Z"/><path class="cls-12" d="M965.26,41a6.62,6.62,0,0,1,5.82-2.91,3.31,3.31,0,0,0,2.19-2.19c.73.73,1,1.94,1.7,2.67-1.46,2.43-4.37,2.19-6.8,3.16-.73.24-1,1-1.46,1.7A8,8,0,0,0,965.26,41Z"/><path class="cls-6" d="M925.2,144.93a9.07,9.07,0,0,1,1.21,2.67c0,2.19-1.94,4.62.49,6.8a6.61,6.61,0,0,0-3.16.49,6.39,6.39,0,0,1-.48-6.56,3.27,3.27,0,0,0-1.22-2.91c1,0,2-.73,3.16-.49Z"/><path class="cls-6" d="M815.71,34c1.7,1.94,1.46,4.61.49,6.8-.25,1,.48,1.94,1.21,2.67a12.9,12.9,0,0,0-2.91.72,4.93,4.93,0,0,1-1.22-4.37c.49-1.69,1.22-3.88-.48-5.09l2.91-.73Z"/><path class="cls-21" d="M741.91,57.54c1.45,1.94.24,4.61-.25,6.55a2.12,2.12,0,0,0,.73,2.91,11.46,11.46,0,0,1-2.91.25c-1.46-1.94-.73-4.37.24-6.56a2.91,2.91,0,0,0-1-2.91c1,.24,2.19-.49,3.16-.24Z"/><path class="cls-8" d="M814.74,99.78c1.46-2.43,4.13-2.91,6.55-3.89.49,0,1-1,1.22-1.69.48,1,1.45,1.45,1.94,2.42-1,2.92-4.13,2.67-6.56,3.89a3.09,3.09,0,0,0-1.21,1.7c-.73-.73-1.21-1.7-1.94-2.43Z"/><path class="cls-8" d="M990.5,119c1.46-2.43,4.13-2.92,6.8-3.89.49,0,1-1,1.22-1.7.24,1,1.7,1.46,1.45,2.43-.48,3.16-3.88,2.67-6.31,3.89a3.09,3.09,0,0,0-1.21,1.7c-.73-.73-1.22-1.7-2-2.43Z"/><path class="cls-12" d="M956,173.1c-2.91-.25-4.13-2.92-5.83-4.86-.48-.49-1.45-.24-2.18-.24.24-1,1.21-1.7,1.46-2.67a4.41,4.41,0,0,1,3.88,1.94c1,1.7,2.19,3.4,4.37,3.16-.73.72-1,1.94-1.7,2.67Z"/><path class="cls-12" d="M903.35,173.1c-3.16.24-4.13-3.16-6.07-4.86-.73-.49-1.46-.24-2.18-.24.72-.73,1-1.94,1.7-2.67,2.67-.25,3.88,2.18,5.34,4.12a3.12,3.12,0,0,0,2.91,1c-.73.72-1,1.94-1.7,2.67Z"/><path class="cls-12" d="M711.32,48.07c-2.43,0-3.89-1.94-5.34-4.13a2.52,2.52,0,0,0-2.67-1c.48-1,1.21-1.7,1.7-2.67a4.3,4.3,0,0,1,3.64,1.94c1,1.7,2.18,3.64,4.37,3.16-.73.73-1,1.94-1.7,2.67Z"/><path class="cls-12" d="M780.51,36.66c-2.43,0-3.89-2.19-5.34-4.13a3.06,3.06,0,0,0-2.67-1c.48-1,.72-2.18,1.45-2.43a4.45,4.45,0,0,1,2.92.73c1.21,1.21,1.7,2.91,3.15,3.89.73.48,1.46.24,2.19.24-.73.73-1,1.94-1.7,2.67Z"/><path class="cls-12" d="M731.47,11.65c-2.91-.24-4.13-2.91-5.83-4.85-.48-.49-1.45-.25-2.18-.25,0-1.21,1.21-1.69,1.7-2.67a4.28,4.28,0,0,1,3.64,2C730,7.28,731,9.23,733.17,9a9.89,9.89,0,0,0-1.7,2.67Z"/><path class="cls-6" d="M842.41,5.58a7.91,7.91,0,0,1,6.07-2.67A3.28,3.28,0,0,0,850.67.73c.73.73,1,1.94,1.7,2.67a5.32,5.32,0,0,1-4.86,2.67c-1.45,0-2.91.48-3.4,2.18-.72-.72-1-1.94-1.7-2.67Z"/><path class="cls-6" d="M861.84,120.66c1.21-2.67,4.37-2.19,6.79-3.16.73-.24,1-1,1.46-1.7a9.53,9.53,0,0,0,1.46,2.67c-1.22,1.94-3.64,2.43-5.83,2.67-1.21.25-1.7,1.22-2.43,2.19a9.51,9.51,0,0,0-1.45-2.67Z"/><path class="cls-21" d="M885.14,62.88a5.16,5.16,0,0,1,5.1-1.94,3.13,3.13,0,0,0,3.64-1.7c.49,1,.49,2.18,1.22,2.91-1.46,1.94-4.13,1.94-6.32,1.94a3.09,3.09,0,0,0-2.67,1.7,14.41,14.41,0,0,1-1-2.91Z"/><path class="cls-21" d="M780.51,127.7c1.7-1.94,3.88-1.94,6.31-1.7a3.09,3.09,0,0,0,2.67-1.7c0,1,1.21,1.94.73,2.91-1,2.19-3.64,1.94-6.07,1.7-1.21,0-1.7,1-2.43,1.7a15,15,0,0,1-1.21-2.91Z"/><path class="cls-21" d="M897.77,4.86a6.61,6.61,0,0,1,6.31-1.7c1.21,0,1.94-1,2.67-1.7,0,1,1.21,1.94.73,2.67-1,2.67-4.62,1.45-7,2.18-.73.24-1,.73-1.46,1.46a14.38,14.38,0,0,1-1.21-2.91Z"/><path class="cls-8" d="M908.93,95.17c-2.42,0-4.12-1.7-5.58-3.65-.73-.72-1.46-1.45-2.91-.72a10.92,10.92,0,0,1,1.45-2.92,6.88,6.88,0,0,1,5.34,3.64c.73,1,1.95,1,3.16,1-.24,1-1.21,1.7-1.46,2.67Z"/><path class="cls-12" d="M945.35,6.07c1.46,2.18.48,4.61-.73,6.55a2.68,2.68,0,0,0,.73,2.92h-2.91c-2.19-2.43.48-4.86.72-7.53.25-.73-.48-1.21-.72-1.94Z"/><path class="cls-12" d="M876.65,14.08c1,2.19.48,4.37-.73,6.56-.73,1-.25,2.18.73,3.15h-3.16c-1.21-1.94-.73-4.61.73-6.55.73-1,.24-2.19-.73-3.16Z"/><path class="cls-12" d="M896.8,122.6c1.21,2.18.48,4.37-.73,6.55a2.37,2.37,0,0,0,.73,2.92,6.94,6.94,0,0,1-3.16-.25c-1.21-.72-1-2.67-.49-4.12.49-1,1.46-1.94,1.46-3.16a3,3,0,0,0-1-1.94Z"/><path class="cls-12" d="M875.19,160.23c1.21,1.94.73,4.61-.73,6.55-.73,1-.24,2.19.73,3.16H872c-1-2.19-1-4.86,1-6.56a4.06,4.06,0,0,0-1-3.15Z"/><path class="cls-6" d="M749.19,137.89c-2.43,0-4.13-1.94-5.1-4.12-.48-1.22-1.94-1-2.91-1.22a15.31,15.31,0,0,0,1.7-2.42c2.43,0,4.13,1.94,5.1,4.12.48,1.22,1.94,1,2.91,1.22a14.86,14.86,0,0,0-1.7,2.42Z"/><path class="cls-6" d="M974.48,124.06c-3.15.24-3.88-3.16-5.82-4.86-.49-.49-1.46-.24-2.19-.49.24-1,1.21-1.45,1.7-2.42,1.94.24,3.64,1,4.37,3.15a3.13,3.13,0,0,0,3.64,2c-.48,1-1.21,1.69-1.7,2.67Z"/><path class="cls-6" d="M842.41,66.28c-2.91-.25-4.12-2.92-5.82-4.86a2.19,2.19,0,0,0-2.19-.48c.49-1,1.22-1.7,1.7-2.68,1.7.49,3.64,1.22,4.62,3.4a3.06,3.06,0,0,0,3.39,2c-.72.72-1,1.94-1.7,2.67Z"/><path class="cls-6" d="M749.19,36.9c-2.91-.24-4.13-2.91-5.83-4.85a2.16,2.16,0,0,0-2.18-.49c.48-1,1.21-1.7,1.7-2.67,1.7.49,3.64,1.21,4.61,3.4a3.09,3.09,0,0,0,3.4,1.94c-.73.73-1,1.94-1.7,2.67Z"/><path class="cls-8" d="M866,81.81c1.95,2.67-.24,5.1-.72,7.77a3,3,0,0,0,1,1.94c-1,0-2.19.25-2.92-.24-1-.73-1.21-2.67-.73-4.13.49-1,1.46-1.94,1.46-3.15a5.25,5.25,0,0,0-1.21-1.94,13.4,13.4,0,0,1,3.15-.25Z"/><path class="cls-12" d="M665.19,114.35c1.94-1.95,4.86-1.22,7.53-1.22.73,0,1.21-.73,1.7-1.46a14.09,14.09,0,0,1,1,2.92c-1.7,1.7-4.13,1.7-6.56,1.45a2.61,2.61,0,0,0-2.67,1.22,13.81,13.81,0,0,1-1-2.91Z"/><path class="cls-12" d="M742.88,102.69c1.7-1.94,4.37-1.45,6.55-1a3.32,3.32,0,0,0,2.67-1.46l.73,2.92c-1.94,2.18-4.85,1-7.28,1.21-.73,0-1.21.73-1.7,1.46a15.28,15.28,0,0,1-1-3.16Z"/><path class="cls-12" d="M936.61,118.23c1.7-1.94,4.37-1.46,6.55-1a3.34,3.34,0,0,0,2.67-1.46l.73,2.91c-1.94,2.19-4.85,1-7.28,1.22-.73,0-1.21.73-1.7,1.46a16.12,16.12,0,0,1-1-3.16Z"/><path class="cls-12" d="M977.88,83.27c1.7-1.7,4.37-1.7,6.56-1.21a3.36,3.36,0,0,0,2.67-1.46l.72,2.91c-1.94,2.19-4.85,1.22-7.28,1.22-.73,0-1.21.73-1.7,1.45a13.81,13.81,0,0,1-1-2.91Z"/></g></g></svg>